<?xml version="1.0" encoding="UTF-8" standalone="no"?>
<!-- Created with Inkscape (http://www.inkscape.org/) -->

<svg
   xmlns:dc="http://purl.org/dc/elements/1.1/"
   xmlns:cc="http://creativecommons.org/ns#"
   xmlns:rdf="http://www.w3.org/1999/02/22-rdf-syntax-ns#"
   xmlns:svg="http://www.w3.org/2000/svg"
   xmlns="http://www.w3.org/2000/svg"
   xmlns:sodipodi="http://sodipodi.sourceforge.net/DTD/sodipodi-0.dtd"
   xmlns:inkscape="http://www.inkscape.org/namespaces/inkscape"
   id="svg2"
   version="1.1"
   inkscape:version="0.48.5 r10040"
   width="708.75"
   height="707.5"
   xml:space="preserve"
   sodipodi:docname="ckm.eps"><metadata
     id="metadata8"><rdf:RDF><cc:Work
         rdf:about=""><dc:format>image/svg+xml</dc:format><dc:type
           rdf:resource="http://purl.org/dc/dcmitype/StillImage" /><dc:title></dc:title></cc:Work></rdf:RDF></metadata><defs
     id="defs6"><clipPath
       clipPathUnits="userSpaceOnUse"
       id="clipPath22"><path
         d="m 908.336,793.621 4478.75,0 0,4301.42 -4478.75,0 0,-4301.42 z"
         id="path24" /></clipPath></defs><sodipodi:namedview
     pagecolor="#ffffff"
     bordercolor="#666666"
     borderopacity="1"
     objecttolerance="10"
     gridtolerance="10"
     guidetolerance="10"
     inkscape:pageopacity="0"
     inkscape:pageshadow="2"
     inkscape:window-width="1600"
     inkscape:window-height="855"
     id="namedview4"
     showgrid="false"
     inkscape:zoom="1.28"
     inkscape:cx="410.64175"
     inkscape:cy="206.97493"
     inkscape:window-x="0"
     inkscape:window-y="-3"
     inkscape:window-maximized="1"
     inkscape:current-layer="g12" /><g
     id="g10"
     inkscape:groupmode="layer"
     inkscape:label="ink_ext_XXXXXX"
     transform="matrix(1.25,0,0,-1.25,0,707.5)"><g
       id="g12"
       transform="scale(0.1,0.1)"><g
         id="g18"><path
           inkscape:connector-curvature="0"
           id="path26"
           style="fill:#e0e0b3;fill-opacity:1;fill-rule:evenodd;stroke:none"
           d="M 914945,1137712.5 2400,2942.5 l 137303,1427735 775242,-292965 z M -910143,-1131825 2400,2942.5 l -137300,-1427730 -775243,292962.5" /><path
           inkscape:connector-curvature="0"
           id="path28"
           style="fill:#b3e6ff;fill-opacity:1;fill-rule:evenodd;stroke:none"
           d="m 3242.5,2375 -15,-2.5 -15,0 -15,-2.5 -102.5,0 -15,2.5 -15,0 -15,2.5 -15,2.5 -5,0 -10,2.5 -15,2.5 -15,2.5 -15,2.5 -15,2.5 -2.5,0 -12.5,5 -15,5 -15,2.5 -7.5,2.5 -7.5,2.5 -15,7.5 -15,2.5 -2.5,2.5 -12.5,5 -15,5 -7.5,5 -7.5,2.5 -15,7.5 -7.5,2.5 -7.5,5 -15,7.5 -5,2.5 -10,5 -15,7.5 -2.5,2.5 -12.5,7.5 -10,7.5 -5,2.5 -15,10 -15,10 -5,5 -10,7.5 -10,7.5 -2.5,2.5 -15,12.5 -15,12.5 -15,15 -2.5,0 -12.5,15 -15,12.5 0,2.5 -12.5,12.5 -2.5,5 -7.5,10 -7.5,7.5 -5,7.5 -10,10 -2.5,2.5 -10,15 -2.5,5 -7.5,10 -7.5,10 -2.5,5 -7.5,12.5 -5,7.5 -2.5,7.5 -10,15 -2.5,5 -2.5,10 -7.5,12.5 -5,7.5 -2.5,7.5 -5,15 -7.5,10 0,2.5 -2.5,15 -5,15 -7.5,10 -2.5,5 0,12.5 -2.5,15 -2.5,15 -7.5,7.5 -30,0 -7.5,-7.5 -2.5,-15 -2.5,-15 0,-12.5 2.5,-15 5,-15 2.5,-15 2.5,-5 0,-7.5 2.5,-15 0,-15 2.5,-12.5 5,-15 5,-15 0,-2.5 2.5,-12.5 2.5,-12.5 5,-15 5,-15 2.5,-15 5,-12.5 7.5,-15 5,-15 5,-15 5,-7.5 2.5,-5 5,-15 7.5,-12.5 0,-2.5 7.5,-12.5 7.5,-12.5 0,-2.5 10,-15 5,-7.5 2.5,-7.5 10,-12.5 2.5,-5 7.5,-10 7.5,-10 2.5,-5 10,-15 2.5,0 10,-12.5 5,-7.5 5,-7.5 10,-10 2.5,-5 12.5,-10 2.5,-5 12.5,-12.5 15,-12.5 0,-2.5 15,-12.5 0,-2.5 15,-10 2.5,-5 12.5,-7.5 5,-5 7.5,-7.5 10,-7.5 5,-2.5 15,-12.5 2.5,0 12.5,-10 7.5,-2.5 7.5,-7.5 15,-7.5 15,-10 10,-5 5,-2.5 15,-7.5 7.5,-5 7.5,-2.5 15,-7.5 10,-2.5 5,-2.5 15,-7.5 15,-5 15,-7.5 15,-5 10,-2.5 5,0 15,-5 15,-5 15,-2.5 2.5,-2.5 12.5,-2.5 15,-2.5 15,-2.5 15,-2.5 15,-2.5 2.5,0 12.5,-2.5 15,-2.5 15,0 15,-2.5 30,0 15,-2.5 15,0 15,2.5 27.5,0 15,2.5 15,0 15,2.5 15,2.5 15,2.5 15,2.5 15,2.5 15,2.5 12.5,2.5 2.5,2.5 15,2.5 15,5 15,5 5,0 10,2.5 15,5 15,7.5 15,5 15,7.5 5,2.5 10,2.5 15,7.5 7.5,2.5 7.5,5 15,7.5 5,2.5 10,5 15,10 15,7.5 7.5,7.5 7.5,2.5 15,10 15,12.5 5,2.5 10,7.5 7.5,7.5 7.5,5 10,7.5 5,5 12.5,10 2.5,2.5 12.5,12.5 2.5,2.5 12.5,12.5 2.5,0 10,12.5 5,5 10,10 2.5,5 10,10 5,7.5 7.5,7.5 7.5,12.5 2.5,0 10,15 2.5,5 7.5,10 7.5,10 2.5,5 10,12.5 2.5,7.5 7.5,7.5 7.5,15 0,2.5 7.5,12.5 7.5,12.5 0,2.5 7.5,12.5 5,15 2.5,5 5,7.5 7.5,15 2.5,15 7.5,15 5,12.5 2.5,15 7.5,15 2.5,15 5,12.5 0,12.5 2.5,2.5 5,15 2.5,15 2.5,12.5 2.5,15 0,22.5 2.5,5 5,15 2.5,15 2.5,15 0,27.5 -5,15 -7.5,7.5 -30,0 -7.5,-7.5 -2.5,-15 -2.5,-15 0,-12.5 -2.5,-5 -7.5,-10 -2.5,-15 -2.5,-15 -2.5,-2.5 -7.5,-10 -5,-15 -2.5,-7.5 -2.5,-7.5 -7.5,-12.5 -5,-10 -2.5,-5 -7.5,-15 -5,-7.5 -5,-7.5 -7.5,-12.5 -2.5,-5 -7.5,-10 -7.5,-10 -2.5,-5 -10,-15 -2.5,-2.5 -10,-10 -5,-7.5 -5,-7.5 -10,-10 -2.5,-5 -10,-12.5 -2.5,-2.5 -12.5,-12.5 -15,-15 -15,-15 -15,-12.5 -2.5,0 -12.5,-12.5 -5,-2.5 -10,-7.5 -10,-7.5 -5,-5 -15,-10 -15,-10 -5,-2.5 -10,-7.5 -12.5,-7.5 -2.5,-2.5 -15,-7.5 -7.5,-5 -7.5,-2.5 -15,-7.5 -5,-5 -10,-2.5 -15,-7.5 -7.5,-2.5 -7.5,-5 -15,-5 -12.5,-5 -2.5,-2.5 -15,-2.5 -15,-7.5 -7.5,-2.5 -7.5,-2.5 -15,-2.5 -15,-5 -12.5,-5 -2.5,0 -15,-2.5 -15,-2.5 -15,-2.5 -15,-2.5 -10,-2.5 -5,0 -15,-2.5 z m -1327.5,675 -5,0 -10,2.5 -15,5 -15,5 -12.5,2.5 -2.5,0 -15,5 -15,5 -15,2.5 -2.5,2.5 -12.5,2.5 -15,5 -15,5 -5,0 -10,5 -15,5 -15,2.5 -5,2.5 -10,2.5 -15,5 -15,5 -5,2.5 -10,2.5 -15,5 -15,5 -2.5,2.5 -10,2.5 -15,5 -15,5 -2.5,0 -12.5,7.5 -15,5 -12.5,2.5 -2.5,2.5 -15,5 -15,5 -5,2.5 -10,2.5 -15,7.5 -12.5,5 -2.5,0 -15,5 -15,7.5 -5,0 -10,5 -15,5 -12.5,5 -2.5,2.5 -15,5 -15,7.5 -2.5,0 -12.5,5 -15,5 -7.5,5 -7.5,2.5 -15,7.5 -10,2.5 -5,2.5 -15,7.5 -12.5,5 -2.5,0 -15,7.5 -15,7.5 -15,5 -15,7.5 -2.5,0 -12.5,7.5 -15,7.5 -2.5,0 -12.5,5 -15,7.5 -2.5,2.5 -12.5,5 -15,7.5 -2.5,2.5 -10,5 -15,7.5 -5,0 -10,7.5 -15,7.5 -2.5,0 -12.5,7.5 -15,7.5 -2.5,0 -12.5,7.5 -15,7.5 -15,7.5 -12.5,5 -2.5,2.5 -15,7.5 -7.5,5 -7.5,5 -15,2.5 -15,0 0,-7.5 -2.5,-15 0,-12.5 -2.5,-15 0,-42.5 -2.5,-15 0,-57.5 -2.5,-15 0,-100 -2.5,-15 0,-400 2.5,-15 0,-72.5 2.5,-12.5 0,-45 2.5,-12.5 0,-30 2.5,-12.5 0,-15 2.5,-15 0,-5 15,0 15,2.5 5,2.5 10,5 15,5 7.5,5 7.5,2.5 15,7.5 10,5 5,0 15,7.5 12.5,5 2.5,0 15,7.5 15,5 2.5,2.5 12.5,5 15,5 7.5,5 5,2.5 15,5 15,5 0,2.5 15,5 15,5 5,2.5 10,5 15,5 12.5,5 2.5,0 15,7.5 15,5 5,2.5 10,2.5 15,5 15,5 0,2.5 15,5 15,5 7.5,2.5 7.5,2.5 15,5 15,5 5,2.5 10,2.5 15,5 15,7.5 15,2.5 15,5 12.5,5 2.5,2.5 15,2.5 15,5 12.5,5 2.5,0 15,5 15,5 12.5,5 2.5,0 15,5 15,5 15,2.5 0,2.5 15,2.5 15,5 12.5,5 5,0 10,2.5 15,5 15,5 10,2.5 5,2.5 15,2.5 15,5 15,2.5 2.5,2.5 12.5,2.5 15,2.5 15,5 12.5,2.5 2.5,2.5 15,2.5 15,5 15,2.5 10,2.5 5,2.5 15,2.5 15,2.5 15,5 10,2.5 5,0 15,2.5 15,5 15,2.5 15,5 15,2.5 15,2.5 15,2.5 15,2.5 10,2.5 5,2.5 15,2.5 15,2.5 15,2.5 15,2.5 10,2.5 5,0 15,2.5 12.5,2.5 15,2.5 15,2.5 15,2.5 7.5,2.5 7.5,0 15,2.5 15,0 15,2.5 15,2.5 15,0 15,2.5 15,5 15,5 12.5,7.5 0,15 -12.5,10 -7.5,5 -7.5,0 -15,5 -15,2.5 -15,0 -15,2.5 -15,2.5 -15,0 -2.5,2.5 -12.5,2.5 -15,2.5 -15,2.5 -15,2.5 -15,2.5 -2.5,0 -10,2.5 -15,5 -15,2.5 -15,2.5 -12.5,2.5 -2.5,0 -15,5 -15,2.5 -15,5 -12.5,2.5 -2.5,0 -15,5 -15,2.5 -15,5 -12.5,2.5 -2.5,0 -15,5 -15,2.5 -15,5 z m 2477.5,2.5 -10,-2.5 -5,0 -15,-5 -15,-2.5 -15,-5 -2.5,0 -12.5,-2.5 -15,-5 -15,-2.5 -15,-5 -15,-2.5 -15,-5 -12.5,-2.5 -15,-5 -5,0 -10,-2.5 -15,-2.5 -15,-2.5 -15,-5 -12.5,-2.5 -2.5,0 -15,-2.5 -15,-2.5 -15,-2.5 -15,-2.5 -12.5,-2.5 -2.5,-2.5 -15,0 -15,-2.5 -15,-2.5 -15,0 -15,-2.5 -15,-5 -5,0 -10,-5 -12.5,-10 0,-15 12.5,-7.5 15,-5 15,-5 15,-2.5 15,0 15,-2.5 15,-2.5 15,0 15,-2.5 7.5,0 7.5,-2.5 15,-2.5 15,-2.5 15,-2.5 15,-2.5 15,-2.5 2.5,0 12.5,-2.5 15,-2.5 15,-2.5 15,-2.5 12.5,-2.5 5,-2.5 10,-2.5 15,-2.5 15,-2.5 15,-2.5 15,-2.5 15,-5 15,-2.5 15,-5 15,-2.5 5,0 10,-2.5 15,-5 15,-2.5 15,-2.5 5,-2.5 10,-2.5 15,-2.5 15,-5 15,-2.5 2.5,-2.5 12.5,-2.5 15,-5 15,-2.5 12.5,-2.5 2.5,-2.5 15,-2.5 15,-5 15,-2.5 5,-2.5 10,-2.5 15,-5 15,-5 10,-2.5 5,0 15,-5 15,-5 12.5,-2.5 2.5,-2.5 15,-2.5 15,-5 15,-5 12.5,-5 15,-5 15,-5 2.5,0 12.5,-5 15,-5 15,-2.5 2.5,-2.5 12.5,-5 15,-5 15,-2.5 15,-7.5 15,-5 12.5,-2.5 2.5,-2.5 15,-5 15,-5 7.5,-2.5 7.5,-2.5 15,-5 15,-5 2.5,-2.5 12.5,-5 15,-5 10,-2.5 5,-2.5 15,-5 15,-7.5 2.5,0 12.5,-5 15,-5 10,-5 5,-2.5 15,-5 15,-5 0,-2.5 15,-5 15,-5 5,-2.5 10,-5 15,-5 10,-5 5,-2.5 15,-5 15,-7.5 15,-5 12.5,-7.5 5,0 10,-5 15,-7.5 7.5,-2.5 7.5,-5 15,-5 10,-5 5,-2.5 15,-2.5 15,0 2.5,5 0,30 2.5,12.5 0,15 2.5,15 0,42.5 2.5,15 0,70 2.5,15 0,430 -2.5,15 0,100 -2.5,15 0,57.5 -2.5,12.5 0,30 -2.5,15 0,27.5 -2.5,7.5 -15,0 -15,-2.5 -5,-5 -10,-5 -15,-7.5 -2.5,-2.5 -12.5,-5 -15,-7.5 -15,-7.5 -12.5,-7.5 -15,-7.5 -15,-7.5 -15,-7.5 -12.5,-7.5 -2.5,0 -15,-7.5 -12.5,-5 -2.5,-2.5 -15,-7.5 -12.5,-5 -2.5,-2.5 -15,-7.5 -12.5,-5 -2.5,0 -15,-7.5 -12.5,-7.5 -2.5,0 -15,-7.5 -15,-5 -15,-7.5 -15,-7.5 -2.5,0 -12.5,-5 -15,-7.5 -5,-2.5 -10,-2.5 -15,-7.5 -7.5,-2.5 -7.5,-5 -15,-5 -12.5,-5 -2.5,0 -15,-7.5 -15,-5 -2.5,-2.5 -12.5,-5 -15,-5 -10,-5 -5,0 -15,-7.5 -15,-5 -15,-5 -15,-7.5 -10,-2.5 -5,-2.5 -15,-5 -12.5,-5 -5,-2.5 -10,-2.5 -15,-5 -15,-7.5 -15,-5 -15,-5 -12.5,-2.5 -2.5,-2.5 -15,-5 -15,-5 -10,-2.5 -5,-2.5 -15,-5 -15,-5 -10,-2.5 -5,-2.5 -15,-2.5 -15,-5 -10,-5 -5,0 -15,-5 -15,-5 -12.5,-2.5 -2.5,-2.5 -15,-2.5 -15,-5 -15,-5 -2.5,0 -12.5,-2.5 -15,-5 -15,-5 z m -925,-62.5 -15,0 -15,2.5 -60,0 -15,2.5 -45,0 -15,2.5 -90,0 -15,2.5 -102.5,0 -15,-2.5 -90,0 -15,-2.5 -45,0 -15,-2.5 -60,0 -15,-2.5 -30,0 -15,-2.5 -30,0 -15,-2.5 -30,0 -15,-2.5 -15,0 -15,-2.5 -5,0 -7.5,-2.5 -30,0 -15,-2.5 -30,0 -15,-2.5 -15,0 -15,-2.5 -15,0 -15,-2.5 -15,-2.5 -5,0 -10,-2.5 -15,-7.5 -10,-5 0,-15 10,-7.5 15,-5 2.5,0 12.5,-2.5 15,-2.5 15,-2.5 15,0 15,-2.5 15,0 15,-2.5 15,0 15,-2.5 17.5,0 12.5,-2.5 15,0 12.5,-2.5 15,-2.5 15,0 15,-2.5 15,0 15,-2.5 30,0 15,-2.5 15,0 15,-2.5 30,0 15,-2.5 30,0 15,-2.5 45,0 15,-2.5 90,0 15,-2.5 132.5,0 15,2.5 90,0 15,2.5 45,0 15,2.5 30,0 15,2.5 30,0 15,2.5 15,0 15,2.5 30,0 15,2.5 15,0 15,2.5 15,0 15,2.5 15,2.5 15,0 12.5,2.5 17.5,0 15,2.5 15,0 12.5,2.5 15,0 15,2.5 15,0 15,2.5 15,2.5 12.5,2.5 2.5,0 15,5 10,7.5 0,15 -10,5 -15,7.5 -10,2.5 -5,0 -15,2.5 -15,2.5 -15,0 -15,2.5 -15,0 -12.5,2.5 -30,0 -15,2.5 -30,0 -10,2.5 -5,0 -15,2.5 -15,0 -15,2.5 -30,0 -15,2.5 -30,0 -15,2.5 -15,0 z m 440,232.5 -2.5,15 -5,10 0,5 -2.5,12.5 -2.5,15 -5,15 -5,7.5 0,5 -5,15 -5,15 -5,7.5 0,7.5 -5,12.5 -7.5,15 -2.5,2.5 -5,12.5 -7.5,15 -2.5,5 -2.5,7.5 -10,15 -2.5,5 -5,10 -7.5,15 -2.5,0 -7.5,12.5 -7.5,12.5 -2.5,2.5 -10,15 -2.5,2.5 -7.5,12.5 -7.5,7.5 -2.5,5 -12.5,15 -12.5,15 -2.5,2.5 -7.5,10 -7.5,7.5 -7.5,7.5 -5,7.5 -7.5,7.5 -7.5,7.5 -7.5,7.5 -7.5,5 -10,7.5 -5,7.5 -10,7.5 -5,5 -15,10 -15,12.5 -2.5,2.5 -12.5,7.5 -7.5,5 -7.5,7.5 -15,7.5 -15,10 -7.5,5 -7.5,5 -15,7.5 -2.5,2.5 -12.5,5 -15,7.5 -2.5,0 -12.5,7.5 -15,7.5 -2.5,0 -12.5,5 -15,7.5 -7.5,2.5 -7.5,2.5 -15,5 -15,5 -2.5,0 -12.5,5 -15,5 -15,2.5 -7.5,2.5 -7.5,2.5 -15,2.5 -15,5 -15,2.5 -15,2.5 -5,0 -10,2.5 -15,0 -15,2.5 -15,2.5 -15,0 -12.5,2.5 -75,0 -15,-2.5 -15,0 -15,-2.5 -15,-2.5 -15,0 -10,-2.5 -5,0 -15,-2.5 -15,-2.5 -15,-5 -15,-2.5 -5,-2.5 -10,-2.5 -15,-2.5 -15,-5 -12.5,-5 -2.5,0 -15,-5 -15,-5 -7.5,-2.5 -7.5,-2.5 -15,-7.5 -12.5,-5 -2.5,0 -15,-7.5 -12.5,-7.5 -2.5,0 -15,-7.5 -10,-5 -5,-2.5 -15,-7.5 -7.5,-5 -7.5,-5 -15,-10 -15,-7.5 -7.5,-7.5 -7.5,-5 -12.5,-7.5 -2.5,-2.5 -12.5,-12.5 -2.5,0 -12.5,-10 -5,-5 -10,-7.5 -7.5,-7.5 -7.5,-7.5 -7.5,-5 -7.5,-7.5 -7.5,-7.5 -7.5,-7.5 -7.5,-7.5 -7.5,-7.5 -5,-7.5 -10,-10 -2.5,-2.5 -12.5,-15 -12.5,-15 -2.5,-5 -7.5,-7.5 -7.5,-12.5 -2.5,-2.5 -10,-15 -2.5,-2.5 -7.5,-12.5 -7.5,-12.5 -10,-15 -5,-10 -2.5,-5 -10,-15 -2.5,-7.5 -2.5,-5 -7.5,-15 -5,-12.5 0,-2.5 -7.5,-15 -5,-12.5 -2.5,-7.5 -5,-7.5 -5,-15 -2.5,-15 -2.5,-5 -2.5,-7.5 -5,-15 -5,-15 -2.5,-12.5 0,-5 -2.5,-10 -5,-15 -2.5,-15 -2.5,-12.5 0,-15 -2.5,-15 0,-7.5 -2.5,-7.5 -2.5,-12.5 0,-15 -2.5,-15 0,-42.5 -2.5,-15 2.5,-12.5 0,-15 2.5,-15 5,-15 15,-5 15,0 5,5 5,15 5,15 0,2.5 5,12.5 5,12.5 2.5,15 0,15 2.5,10 2.5,2.5 5,15 5,15 2.5,12.5 0,2.5 7.5,12.5 5,15 2.5,5 5,10 7.5,15 2.5,7.5 2.5,5 10,15 2.5,7.5 5,7.5 7.5,15 2.5,2.5 7.5,10 7.5,12.5 2.5,2.5 10,15 2.5,2.5 7.5,10 7.5,10 5,5 10,12.5 2.5,2.5 12.5,15 12.5,12.5 2.5,2.5 12.5,12.5 2.5,2.5 12.5,12.5 2.5,0 12.5,15 2.5,0 15,12.5 12.5,12.5 5,2.5 10,7.5 10,7.5 5,2.5 15,12.5 15,7.5 7.5,5 7.5,5 15,10 2.5,0 12.5,7.5 15,7.5 15,7.5 15,7.5 15,5 15,7.5 2.5,0 12.5,5 15,5 10,5 5,2.5 15,2.5 15,5 12.5,5 2.5,0 15,2.5 15,5 15,2.5 15,2.5 15,2.5 15,2.5 15,2.5 15,2.5 15,0 15,2.5 30,0 15,2.5 15,0 15,-2.5 27.5,0 15,-2.5 15,0 15,-2.5 15,-2.5 15,-2.5 15,-2.5 15,-2.5 15,-2.5 15,-5 15,-2.5 2.5,0 12.5,-5 15,-5 15,-2.5 5,-2.5 10,-5 15,-5 12.5,-5 2.5,0 15,-7.5 15,-5 2.5,0 12.5,-7.5 15,-7.5 15,-7.5 12.5,-7.5 2.5,0 15,-10 7.5,-5 7.5,-5 15,-7.5 15,-12.5 5,-2.5 10,-7.5 10,-7.5 5,-2.5 12.5,-12.5 2.5,0 15,-12.5 15,-15 15,-12.5 0,-2.5 15,-12.5 0,-2.5 12.5,-12.5 2.5,0 10,-15 2.5,-2.5 10,-12.5 5,-5 7.5,-10 7.5,-10 2.5,-2.5 10,-15 2.5,-2.5 7.5,-12.5 7.5,-10 2.5,-2.5 7.5,-15 5,-7.5 5,-7.5 7.5,-15 2.5,-5 2.5,-7.5 7.5,-15 5,-10 2.5,-5 5,-15 7.5,-12.5 0,-2.5 2.5,-12.5 5,-15 7.5,-15 0,-2.5 2.5,-10 0,-15 2.5,-15 5,-12.5 5,-12.5 0,-2.5 5,-15 5,-15 5,-5 15,0 15,5 7.5,15 0,15 2.5,15 0,42.5 -2.5,12.5 0,15 -2.5,15 0,15 -2.5,12.5 -2.5,7.5 0,22.5 -2.5,15 -2.5,12.5 -2.5,15" /><path
           inkscape:connector-curvature="0"
           id="path30"
           style="fill:#fafa1e;fill-opacity:1;fill-rule:evenodd;stroke:none"
           d="m 4065,4385 -15,2.5 -15,2.5 -15,2.5 -15,0 -15,2.5 -195,0 -15,-2.5 -15,0 -15,-2.5 -15,0 -15,-2.5 -12.5,-2.5 -15,-2.5 -15,0 -15,-2.5 -15,-2.5 -15,-2.5 -15,-2.5 -7.5,-2.5 -7.5,0 -15,-2.5 -15,-2.5 -15,-5 -15,-5 -2.5,0 -12.5,-2.5 -15,-2.5 -15,-2.5 -15,-7.5 -15,-2.5 -15,-2.5 -15,-5 -5,-2.5 -10,-2.5 -15,-5 -15,-5 -5,-2.5 -10,-2.5 -15,-5 -15,-7.5 -15,-2.5 -15,-7.5 -7.5,-5 -7.5,0 -15,-5 -12.5,-7.5 -2.5,0 -15,-5 -15,-10 -15,-5 -15,-7.5 0,-2.5 -15,-5 -12.5,-7.5 -2.5,0 -12.5,-7.5 -15,-7.5 -15,-7.5 -12.5,-7.5 -2.5,-2.5 -15,-7.5 -7.5,-5 -7.5,-2.5 -15,-10 0,-2.5 -15,-7.5 -10,-5 -5,-5 -15,-10 -15,-7.5 -7.5,-7.5 -7.5,-2.5 -12.5,-10 -2.5,-2.5 -15,-12.5 -2.5,0 -12.5,-7.5 -7.5,-7.5 -7.5,-5 -10,-10 -5,-2.5 -12.5,-10 -2.5,-2.5 -15,-12.5 -15,-12.5 -2.5,-2.5 -12.5,-10 -5,-5 -10,-7.5 -5,-5 -10,-7.5 -7.5,-7.5 -7.5,-7.5 -7.5,-7.5 -7.5,-7.5 -7.5,-5 -7.5,-10 -5,-5 -10,-10 -5,-5 -10,-10 -2.5,-5 -12.5,-12.5 -12.5,-15 -2.5,-2.5 -10,-12.5 -5,-2.5 -10,-12.5 -5,-5 -5,-7.5 -10,-12.5 -2.5,-2.5 -10,-15 -2.5,-2.5 -10,-12.5 -2.5,-5 -7.5,-7.5 -7.5,-15 -2.5,0 -10,-15 -2.5,-5 -7.5,-7.5 -7.5,-15 -12.5,-15 -2.5,-7.5 -7.5,-7.5 -7.5,-12.5 0,-5 -10,-10 -5,-15 -10,-15 -5,-10 -2.5,-2.5 -10,-15 -2.5,-10 -2.5,-5 -10,-15 -2.5,-10 -2.5,-2.5 -7.5,-15 -5,-12.5 0,-2.5 -10,-12.5 -5,-15 0,-2.5 -7.5,-12.5 -5,-15 -2.5,-7.5 -2.5,-5 -7.5,-15 -5,-15 0,-5 -5,-10 -5,-12.5 -5,-15 0,-5 -5,-10 -5,-15 -2.5,-12.5 -2.5,-7.5 -2.5,-7.5 -5,-15 -5,-15 -2.5,-12.5 0,-5 -5,-10 -2.5,-15 -5,-12.5 0,-15 -2.5,-12.5 0,-2.5 -5,-15 -2.5,-12.5 -2.5,-15 -2.5,-15 -2.5,-15 0,-12.5 -2.5,-15 -2.5,-15 -2.5,-15 -2.5,-12.5 0,-15 -2.5,-15 0,-57.5 -2.5,-12.5 0,-72.5 2.5,-15 0,-57.5 2.5,-15 0,-12.5 2.5,-15 2.5,-15 2.5,-12.5 2.5,-15 0,-15 2.5,-15 2.5,-12.5 2.5,-15 2.5,-15 5,-15 2.5,-12.5 0,-15 5,-15 2.5,-15 5,-7.5 0,-5 2.5,-15 5,-15 5,-12.5 2.5,-7.5 2.5,-7.5 2.5,-15 5,-15 5,-10 0,-2.5 5,-15 5,-15 5,-10 0,-5 5,-12.5 7.5,-15 2.5,-5 2.5,-10 5,-15 7.5,-10 0,-2.5 5,-15 10,-15 5,-15 7.5,-12.5 2.5,-5 2.5,-10 10,-15 2.5,-2.5 2.5,-10 10,-15 2.5,-2.5 5,-12.5 10,-15 5,-12.5 10,-12.5 0,-2.5 7.5,-15 7.5,-7.5 2.5,-7.5 12.5,-12.5 7.5,-15 7.5,-10 2.5,-5 10,-15 2.5,0 7.5,-12.5 7.5,-7.5 2.5,-7.5 10,-12.5 2.5,-2.5 10,-12.5 2.5,-5 10,-10 5,-7.5 5,-7.5 10,-10 5,-5 10,-12.5 2.5,0 12.5,-15 12.5,-15 2.5,-2.5 10,-12.5 5,-5 10,-7.5 5,-7.5 7.5,-7.5 7.5,-7.5 7.5,-7.5 7.5,-7.5 7.5,-7.5 7.5,-5 10,-7.5 5,-7.5 10,-7.5 5,-5 12.5,-10 2.5,-2.5 15,-10 15,-15 2.5,0 12.5,-12.5 5,-2.5 10,-10 7.5,-5 7.5,-5 12.5,-7.5 2.5,-2.5 15,-10 2.5,-2.5 12.5,-10 7.5,-5 7.5,-5 15,-7.5 0,-2.5 15,-10 5,-2.5 10,-7.5 15,-7.5 15,-10 7.5,-5 7.5,-2.5 15,-10 2.5,-2.5 12.5,-5 15,-7.5 15,-10 12.5,-5 2.5,0 12.5,-10 15,-5 15,-10 15,-5 15,-7.5 15,-5 2.5,0 12.5,-7.5 15,-5 7.5,-2.5 7.5,-5 15,-5 15,-5 15,-7.5 15,-5 10,0 5,-5 15,-5 15,-2.5 10,-2.5 5,-2.5 15,-5 15,-5 15,-2.5 15,-5 15,-5 15,-2.5 12.5,-2.5 2.5,0 15,-5 15,-2.5 15,-2.5 15,-2.5 7.5,0 7.5,-2.5 15,-5 15,-2.5 15,-2.5 15,0 15,-2.5 15,0 12.5,-2.5 15,-2.5 15,-2.5 15,0 15,-2.5 30,0 15,-2.5 135,0 15,2.5 30,0 15,2.5 15,0 15,2.5 15,2.5 10,2.5 20,0 15,2.5 15,2.5 15,2.5 15,2.5 15,2.5 0,2.5 15,0 15,2.5 15,2.5 15,5 10,2.5 2.5,2.5 15,0 15,5 15,2.5 10,5 5,0 15,5 15,2.5 15,7.5 15,2.5 15,5 15,7.5 15,2.5 15,5 10,5 5,2.5 15,2.5 15,7.5 2.5,2.5 12.5,2.5 15,7.5 7.5,5 7.5,2.5 15,5 10,5 5,2.5 15,5 12.5,7.5 2.5,2.5 15,5 10,7.5 5,2.5 15,5 7.5,7.5 7.5,2.5 15,7.5 5,2.5 10,5 12.5,10 2.5,0 15,7.5 7.5,7.5 7.5,2.5 15,10 0,2.5 15,5 10,7.5 5,2.5 12.5,12.5 2.5,0 12.5,7.5 7.5,7.5 7.5,5 12.5,10 2.5,0 15,12.5 2.5,0 12.5,10 7.5,5 7.5,7.5 10,7.5 5,5 12.5,10 2.5,2.5 12.5,10 2.5,2.5 15,12.5 15,15 15,12.5 15,15 15,15 15,15 15,12.5 0,2.5 12.5,12.5 2.5,2.5 12.5,12.5 2.5,2.5 10,12.5 5,5 7.5,7.5 7.5,10 5,5 10,15 12.5,15 2.5,2.5 10,10 5,7.5 5,7.5 10,15 10,12.5 5,7.5 7.5,7.5 7.5,15 10,15 5,5 5,7.5 7.5,15 2.5,2.5 10,12.5 5,10 0,5 10,12.5 5,7.5 5,7.5 7.5,15 2.5,5 5,10 7.5,12.5 2.5,5 5,10 7.5,15 2.5,5 5,7.5 5,15 5,10 2.5,5 7.5,15 2.5,12.5 0,2.5 10,12.5 5,15 0,7.5 5,7.5 5,12.5 5,15 0,5 5,10 7.5,15 2.5,12.5 0,5 5,10 5,15 5,15 0,10 2.5,2.5 5,15 5,15 2.5,12.5 0,12.5 2.5,2.5 5,15 2.5,15 2.5,12.5 2.5,15 0,10 15,0 2.5,5 2.5,15 2.5,12.5 2.5,15 0,30 2.5,12.5 0,330 -2.5,15 0,27.5 -2.5,15 -2.5,15 -2.5,15 -2.5,2.5 -15,0 0,10 -2.5,15 -2.5,15 -2.5,15 -5,12.5 -2.5,5 0,10 -2.5,15 -5,12.5 -5,15 -2.5,2.5 0,12.5 -5,15 -5,12.5 -5,10 0,5 -2.5,15 -7.5,15 -5,10 0,2.5 -5,15 -5,15 -5,5 0,10 -5,12.5 -10,15 -2.5,15 -7.5,15 -2.5,2.5 -5,10 -5,15 -5,7.5 -2.5,7.5 -7.5,12.5 -5,10 -2.5,5 -7.5,15 -5,7.5 -2.5,7.5 -7.5,12.5 -5,7.5 -5,7.5 -10,15 0,2.5 -5,12.5 -10,12.5 -2.5,0 -7.5,15 -5,7.5 -5,7.5 -10,15 -7.5,12.5 -7.5,10 -5,5 -10,15 -10,12.5 -5,7.5 -5,7.5 -10,12.5 -2.5,2.5 -12.5,15 -10,12.5 -5,5 -7.5,10 -7.5,7.5 -5,7.5 -10,10 -2.5,5 -12.5,10 -2.5,2.5 -12.5,15 -15,15 -15,15 -15,12.5 -15,15 -15,15 -15,12.5 -15,15 -2.5,0 -12.5,12.5 -2.5,2.5 -12.5,10 -5,5 -10,7.5 -7.5,5 -7.5,5 -12.5,10 -2.5,0 -15,12.5 -2.5,2.5 -12.5,10 -7.5,5 -7.5,5 -12.5,7.5 -2.5,2.5 -12.5,10 -5,2.5 -10,7.5 -15,7.5 0,2.5 -15,10 -7.5,2.5 -7.5,5 -15,7.5 -2.5,0 -12.5,10 -10,5 -5,2.5 -15,10 -7.5,2.5 -7.5,5 -15,7.5 -5,2.5 -10,5 -15,7.5 -2.5,0 -12.5,7.5 -15,5 -5,2.5 -10,7.5 -15,5 -7.5,2.5 -7.5,5 -15,5 -12.5,2.5 -2.5,2.5 -15,7.5 -15,5 -5,0 -10,5 -15,7.5 -15,2.5 -15,7.5 -15,2.5 -15,5 -15,5 -15,5 -15,2.5 -5,0 -10,5 -15,5 -15,2.5 -15,2.5 -2.5,0 -10,5 -15,2.5 -15,2.5 -15,2.5 -15,2.5 -15,5 -15,2.5 -15,2.5 -15,0 -15,2.5 -15,0 -5,2.5 -10,0 z m -45,-260 15,-2.5 15,-2.5 15,-2.5 15,-2.5 15,0 15,-2.5 12.5,0 2.5,-2.5 15,-5 15,-2.5 15,-2.5 15,-2.5 5,0 10,-5 15,-5 15,-2.5 12.5,-2.5 2.5,0 12.5,-5 15,-5 15,-2.5 2.5,-2.5 12.5,-5 15,-5 15,-2.5 15,-10 15,-2.5 7.5,-2.5 7.5,-5 15,-7.5 10,-2.5 5,-2.5 15,-7.5 12.5,-5 2.5,0 15,-10 12.5,-2.5 2.5,-2.5 15,-10 10,-2.5 5,-5 15,-7.5 5,-2.5 10,-5 15,-7.5 15,-12.5 7.5,-2.5 7.5,-5 15,-7.5 2.5,-2.5 12.5,-10 7.5,-5 7.5,-5 15,-7.5 15,-12.5 2.5,-2.5 12.5,-10 5,-5 10,-7.5 10,-7.5 5,-2.5 12.5,-10 2.5,-2.5 15,-12.5 15,-12.5 0,-2.5 15,-12.5 0,-2.5 12.5,-10 2.5,-2.5 12.5,-12.5 2.5,-2.5 12.5,-12.5 2.5,-2.5 12.5,-12.5 2.5,0 12.5,-15 0,-2.5 12.5,-12.5 2.5,-5 7.5,-10 7.5,-7.5 5,-5 10,-12.5 2.5,-2.5 12.5,-15 10,-15 5,-5 5,-7.5 10,-12.5 2.5,-2.5 7.5,-15 5,-5 5,-10 10,-12.5 7.5,-15 7.5,-10 2.5,-5 7.5,-12.5 5,-7.5 2.5,-7.5 10,-15 2.5,-2.5 5,-12.5 7.5,-12.5 2.5,-5 5,-10 7.5,-15 2.5,-5 2.5,-10 7.5,-12.5 5,-10 2.5,-5 2.5,-15 10,-15 2.5,-12.5 5,-15 7.5,-12.5 0,-2.5 2.5,-15 5,-12.5 7.5,-15 2.5,-15 2.5,-12.5 5,-15 5,-10 0,-5 2.5,-15 2.5,-12.5 2.5,-15 5,-15 2.5,-5 0,-10 2.5,-12.5 0,-15 2.5,-15 2.5,-15 2.5,-12.5 2.5,-15 2.5,-5 0,-37.5 2.5,-15 0,-130 -2.5,-12.5 0,-37.5 -2.5,-7.5 -2.5,-12.5 -2.5,-15 -2.5,-15 -2.5,-12.5 0,-15 -2.5,-15 0,-10 -2.5,-5 -5,-12.5 -2.5,-15 -2.5,-15 -2.5,-15 0,-2.5 -5,-10 -5,-15 -2.5,-15 -2.5,-15 -7.5,-12.5 -5,-15 -2.5,-15 -7.5,-12.5 -5,-15 -2.5,-12.5 0,-2.5 -10,-15 -2.5,-12.5 -2.5,-5 -5,-10 -7.5,-15 -2.5,-10 -2.5,-5 -7.5,-12.5 -5,-12.5 -2.5,-2.5 -7.5,-15 -5,-10 -2.5,-5 -10,-12.5 -2.5,-10 -5,-5 -7.5,-15 -2.5,-5 -7.5,-10 -7.5,-12.5 0,-2.5 -10,-12.5 -5,-7.5 -5,-7.5 -7.5,-12.5 -2.5,-2.5 -10,-12.5 -5,-7.5 -5,-7.5 -10,-15 -12.5,-12.5 -2.5,-5 -10,-10 -5,-7.5 -7.5,-7.5 -7.5,-10 -2.5,-5 -12.5,-12.5 -12.5,-15 -2.5,0 -12.5,-15 -2.5,0 -12.5,-15 -2.5,0 -12.5,-12.5 -2.5,-2.5 -12.5,-12.5 0,-2.5 -15,-12.5 -15,-12.5 0,-2.5 -15,-12.5 -2.5,0 -12.5,-10 -5,-5 -10,-7.5 -10,-7.5 -5,-2.5 -12.5,-10 -2.5,-2.5 -15,-12.5 -15,-10 -7.5,-5 -7.5,-5 -12.5,-10 -2.5,0 -15,-7.5 -7.5,-5 -7.5,-5 -15,-10 -15,-7.5 -10,-7.5 -5,-2.5 -15,-7.5 -5,-5 -10,-2.5 -15,-10 -2.5,0 -12.5,-5 -15,-7.5 -2.5,-2.5 -12.5,-5 -15,-7.5 -5,-2.5 -10,-2.5 -15,-5 -7.5,-5 -7.5,-2.5 -15,-5 -15,-7.5 -15,-2.5 -15,-5 -12.5,-7.5 -2.5,0 -15,-2.5 -15,-5 -12.5,-7.5 -2.5,0 -12.5,-2.5 -15,-2.5 -15,-5 -10,-2.5 -5,-2.5 -15,-2.5 -15,-2.5 -15,-2.5 -15,-5 -2.5,0 -12.5,-2.5 -15,0 -15,-2.5 -15,-2.5 -15,-2.5 -15,-2.5 -15,-2.5 -30,0 -15,-2.5 -180,0 -15,2.5 -17.5,0 -12.5,2.5 -15,2.5 -15,2.5 -12.5,2.5 -15,2.5 -15,0 -15,2.5 -2.5,0 -12.5,5 -15,2.5 -15,2.5 -15,2.5 -10,2.5 -5,2.5 -15,5 -15,2.5 -15,2.5 -5,0 -10,5 -15,5 -15,5 -5,0 -10,5 -15,5 -15,5 -2.5,0 -12.5,7.5 -15,5 -10,2.5 -5,2.5 -15,7.5 -15,2.5 -15,10 -15,5 -15,10 -15,5 -15,7.5 -12.5,5 -2.5,2.5 -15,10 -7.5,2.5 -7.5,5 -15,7.5 -2.5,2.5 -12.5,7.5 -12.5,7.5 -2.5,0 -15,10 -2.5,2.5 -10,10 -12.5,5 -2.5,2.5 -15,10 -2.5,2.5 -12.5,10 -7.5,5 -7.5,7.5 -12.5,5 -2.5,5 -15,10 -15,12.5 -2.5,2.5 -12.5,12.5 -2.5,2.5 -12.5,10 -5,2.5 -10,10 -5,5 -10,10 -5,5 -10,10 -5,2.5 -10,12.5 -5,2.5 -10,12.5 -2.5,2.5 -12.5,12.5 -2.5,2.5 -12.5,12.5 -12.5,15 -2.5,5 -7.5,10 -7.5,7.5 -5,7.5 -10,10 -2.5,2.5 -10,15 -2.5,2.5 -7.5,12.5 -7.5,7.5 -2.5,7.5 -12.5,12.5 -7.5,15 -7.5,10 -2.5,5 -7.5,12.5 -5,5 -5,10 -10,15 -5,15 -10,12.5 -5,15 -10,12.5 0,2.5 -5,15 -10,12.5 -5,15 -7.5,15 -2.5,2.5 -2.5,12.5 -5,12.5 -7.5,10 0,5 -5,15 -5,15 -5,5 0,7.5 -5,15 -5,15 -5,5 0,7.5 -2.5,15 -5,15 -7.5,12.5 0,15 -2.5,15 -5,15 -5,15 -2.5,5 0,7.5 -2.5,15 0,15 -2.5,15 -2.5,12.5 -5,15 0,10 -2.5,5 0,27.5 -2.5,15 0,42.5 -2.5,15 0,72.5 2.5,12.5 0,45 2.5,12.5 0,30 2.5,2.5 0,10 5,15 2.5,15 2.5,15 0,12.5 2.5,15 0,10 2.5,5 5,15 5,12.5 2.5,15 0,15 7.5,15 5,12.5 2.5,15 0,7.5 5,7.5 5,12.5 5,15 0,10 5,5 5,15 5,12.5 0,5 7.5,10 5,15 2.5,12.5 2.5,2.5 7.5,12.5 5,15 0,2.5 10,12.5 5,15 0,2.5 10,10 5,15 0,2.5 10,12.5 5,15 10,12.5 5,10 5,5 7.5,15 2.5,5 7.5,7.5 7.5,15 12.5,15 2.5,5 7.5,10 7.5,12.5 2.5,0 10,15 2.5,2.5 10,12.5 5,5 7.5,10 7.5,10 2.5,2.5 12.5,15 12.5,15 2.5,2.5 12.5,12.5 2.5,2.5 10,10 5,5 10,10 5,5 10,10 5,5 10,7.5 5,5 10,10 5,5 12.5,10 2.5,2.5 12.5,12.5 2.5,0 15,12.5 15,12.5 2.5,2.5 12.5,7.5 7.5,7.5 7.5,2.5 12.5,12.5 2.5,0 15,10 2.5,2.5 12.5,7.5 10,7.5 2.5,2.5 15,10 2.5,2.5 12.5,5 12.5,10 2.5,0 15,10 7.5,2.5 7.5,5 15,10 2.5,0 12.5,5 15,10 15,5 15,7.5 0,2.5 15,5 15,7.5 15,5 15,7.5 5,2.5 10,2.5 15,5 12.5,7.5 2.5,0 15,2.5 15,7.5 10,2.5 5,2.5 15,2.5 15,5 10,5 5,0 15,2.5 15,5 15,5 5,2.5 10,0 15,2.5 15,2.5 15,5 12.5,5 17.5,0 15,2.5 15,2.5 12.5,0 15,2.5 15,5 15,0 15,2.5 45,0 15,2.5 105,0 15,-2.5 45,0 15,-2.5" /><path
           inkscape:connector-curvature="0"
           id="path32"
           style="fill:#8cff50;fill-opacity:1;fill-rule:evenodd;stroke:none"
           d="m 5392.5,2432.5 -15,0 -15,-7.5 -10,-5 -5,-2.5 -15,-5 -12.5,-7.5 -2.5,0 -15,-5 -15,-10 -12.5,-2.5 -15,-10 -2.5,0 -12.5,-5 -15,-10 -15,-5 -15,-10 -15,-7.5 -10,-7.5 -5,0 -15,-10 -5,-2.5 -10,-5 -15,-10 -15,-7.5 -10,-7.5 -5,-2.5 -15,-10 0,-2.5 -15,-7.5 -7.5,-5 -7.5,-5 -12.5,-10 -2.5,-2.5 -15,-10 -2.5,-2.5 -12.5,-7.5 -7.5,-5 -7.5,-7.5 -10,-7.5 -5,-2.5 -12.5,-12.5 -2.5,0 -15,-15 -15,-12.5 -15,-12.5 -2.5,-2.5 -12.5,-10 -2.5,-5 -12.5,-10 -2.5,-5 -12.5,-10 -2.5,-2.5 -12.5,-12.5 -2.5,-2.5 -12.5,-12.5 0,-2.5 -12.5,-12.5 -2.5,-2.5 -12.5,-12.5 -2.5,-2.5 -10,-12.5 -5,-5 -7.5,-10 -7.5,-7.5 -5,-5 -10,-15 -12.5,-15 0,-2.5 -12.5,-12.5 -2.5,-7.5 -7.5,-5 -7.5,-15 -12.5,-15 -2.5,-5 -7.5,-10 -7.5,-12.5 -2.5,0 -10,-15 -2.5,-7.5 -7.5,-7.5 -7.5,-12.5 0,-2.5 -10,-12.5 -5,-12.5 -2.5,-2.5 -10,-15 -2.5,-5 -7.5,-7.5 -7.5,-15 0,-5 -7.5,-10 -7.5,-15 -10,-12.5 -5,-15 0,-2.5 -10,-12.5 -5,-15 -10,-12.5 -5,-15 0,-2.5 -10,-12.5 -5,-15 0,-2.5 -7.5,-10 -5,-15 -2.5,-5 -5,-10 -7.5,-12.5 -2.5,-10 -2.5,-5 -7.5,-15 -5,-15 -7.5,-12.5 -5,-15 -2.5,-5 -5,-10 -7.5,-15 -2.5,-12.5 -10,-15 -2.5,-15 -2.5,-5 -5,-10 -5,-12.5 -5,-15 0,-2.5 -7.5,-12.5 -5,-12.5 -2.5,-12.5 -2.5,-2.5 -7.5,-15 -2.5,-15 -2.5,-7.5 -2.5,-5 -7.5,-15 -2.5,-15 -2.5,-5 -5,-10 -5,-12.5 -2.5,-15 -2.5,-5 -5,-10 -5,-15 -2.5,-12.5 -2.5,-5 -5,-10 -5,-15 -2.5,-15 -2.5,-5 -5,-7.5 -5,-15 -2.5,-15 -2.5,-5 -2.5,-7.5 -7.5,-15 -2.5,-15 -2.5,-10 -2.5,-5 -5,-12.5 -5,-15 -2.5,-15 -7.5,-15 -2.5,-12.5 -2.5,-15 -2.5,-2.5 -5,-12.5 -5,-15 -2.5,-12.5 -2.5,-7.5 -2.5,-7.5 -5,-15 -5,-12.5 -2.5,-15 -7.5,-15 -2.5,-15 -2.5,-12.5 -2.5,-7.5 -2.5,-7.5 0,-15 2.5,-5 15,-7.5 582.5,0 15,5 12.5,7.5 0,15 2.5,7.5 2.5,7.5 7.5,12.5 5,15 0,7.5 5,7.5 5,15 5,12.5 0,5 5,10 5,15 5,12.5 0,2.5 7.5,12.5 5,15 2.5,10 2.5,5 5,12.5 5,15 2.5,7.5 5,7.5 5,15 5,12.5 0,2.5 7.5,12.5 5,15 2.5,10 2.5,5 7.5,12.5 5,15 0,2.5 7.5,12.5 5,12.5 2.5,10 2.5,5 7.5,15 5,15 7.5,12.5 5,15 2.5,7.5 5,7.5 5,15 5,10 2.5,2.5 7.5,15 5,15 7.5,15 5,12.5 2.5,2.5 7.5,12.5 5,15 2.5,5 5,10 7.5,12.5 2.5,7.5 5,7.5 7.5,15 2.5,5 5,7.5 7.5,15 2.5,7.5 5,7.5 7.5,15 2.5,5 5,7.5 7.5,15 2.5,5 5,10 7.5,15 2.5,0 7.5,12.5 7.5,15 10,15 5,10 2.5,5 7.5,12.5 5,5 5,10 7.5,15 2.5,0 10,12.5 5,10 2.5,5 10,15 2.5,2.5 7.5,12.5 5,10 5,2.5 10,15 0,2.5 10,12.5 5,10 5,5 10,12.5 0,2.5 12.5,12.5 2.5,5 7.5,10 7.5,10 5,5 10,12.5 0,2.5 15,0 7.5,12.5 2.5,15 2.5,15 0,12.5 2.5,15 0,530 -5,15 -10,12.5 z m -1417.5,2680 -15,2.5 -492.5,0 -15,-2.5 -15,-12.5 0,-12.5 -2.5,-15 -2.5,-15 -2.5,-15 0,-12.5 -2.5,-15 0,-15 -2.5,-15 0,-12.5 -2.5,-15 0,-15 -2.5,-12.5 -2.5,-15 -2.5,-15 -2.5,-15 -2.5,-12.5 0,-15 -2.5,-15 0,-2.5 -2.5,-12.5 -5,-12.5 -2.5,-15 -2.5,-15 0,-15 -2.5,-12.5 -5,-15 -2.5,-15 -2.5,-12.5 -2.5,-15 -2.5,-10 -2.5,-5 -5,-15 -2.5,-12.5 -2.5,-15 -2.5,-12.5 0,-2.5 -5,-15 -5,-12.5 -2.5,-15 -2.5,-7.5 -2.5,-7.5 -5,-15 -5,-12.5 -2.5,-15 -7.5,-15 -2.5,-15 -5,-12.5 -7.5,-15 -2.5,-15 -5,-12.5 -7.5,-15 -5,-15 -2.5,-5 -5,-10 -5,-12.5 -5,-15 -7.5,-15 -5,-15 -2.5,-2.5 -7.5,-10 -5,-15 -2.5,-5 -5,-10 -7.5,-15 -2.5,-2.5 -5,-10 -7.5,-15 -2.5,-2.5 -7.5,-12.5 -5,-12.5 -2.5,-2.5 -7.5,-12.5 -5,-12.5 -2.5,-2.5 -10,-15 -2.5,-5 -7.5,-7.5 -7.5,-15 -12.5,-15 -2.5,-5 -7.5,-10 -7.5,-12.5 -2.5,0 -10,-15 -2.5,-5 -10,-10 -5,-7.5 -5,-7.5 -10,-12.5 -2.5,0 -12.5,-15 0,-2.5 -12.5,-12.5 -2.5,-2.5 -10,-12.5 -5,-5 -10,-7.5 -5,-7.5 -7.5,-7.5 -7.5,-7.5 -7.5,-7.5 -7.5,-7.5 -7.5,-5 -7.5,-10 -7.5,-5 -7.5,-7.5 -7.5,-7.5 -7.5,-5 -10,-10 -5,-5 -10,-7.5 -5,-5 -12.5,-10 -2.5,-2.5 -15,-12.5 -15,-10 -5,-5 -10,-5 -10,-7.5 -5,-5 -12.5,-10 -2.5,0 -15,-10 -5,-5 -10,-5 -12.5,-10 -2.5,0 -15,-10 -5,-2.5 -10,-5 -12.5,-10 -2.5,0 -15,-10 -7.5,-5 -7.5,-2.5 -15,-10 -2.5,0 -12.5,-7.5 -12.5,-7.5 -15,-7.5 -12.5,-7.5 -2.5,0 -15,-7.5 -12.5,-7.5 -2.5,0 -15,-7.5 -10,-5 -5,-2.5 -15,-5 -12.5,-7.5 -2.5,-2.5 -15,-5 -15,-7.5 -15,-5 -15,-7.5 -2.5,-2.5 -12.5,-2.5 -15,-5 -10,-5 -5,-2.5 -15,-5 -15,-7.5 -15,-5 -15,-5 -10,-5 -5,0 -15,-5 -15,-5 -5,-5 -10,0 -15,-5 -15,-5 -2.5,-2.5 -12.5,-2.5 -15,-5 -15,-5 -5,-2.5 -10,-2.5 -15,-2.5 -15,-5 -7.5,-5 -7.5,0 -15,-5 -15,-2.5 -12.5,-5 0,-2.5 -15,-2.5 -15,-2.5 -15,-5 -7.5,-2.5 -7.5,-2.5 -15,-2.5 -15,-2.5 -15,-7.5 -2.5,0 -12.5,-2.5 -15,-2.5 -15,-2.5 -15,-5 -2.5,-2.5 -12.5,0 -15,-2.5 -15,-5 -15,-5 -5,0 -10,-2.5 -15,-2.5 -15,-2.5 -15,-2.5 -12.5,-5 -2.5,0 -15,-2.5 -15,-2.5 -15,-2.5 -15,-2.5 -10,-5 -5,0 -15,-2.5 -15,-2.5 -15,-2.5 -15,-2.5 -10,-5 -20,0 -15,-2.5 -15,-2.5 -15,-2.5 -12.5,-5 -5,0 -10,-2.5 -15,0 -15,-2.5 -15,-2.5 -15,-2.5 -15,-5 -2.5,0 -12.5,-2.5 -15,0 -15,-2.5 -15,0 -15,-5 -15,-2.5 -7.5,-2.5 -7.5,0 -15,-2.5 -15,0 -15,-2.5 -15,-2.5 -15,-2.5 -15,-2.5 -2.5,-2.5 -27.5,0 -15,-2.5 -15,0 -15,-2.5 -15,-2.5 -15,-2.5 -7.5,-2.5 -7.5,0 -15,-2.5 -15,0 -15,-2.5 -15,0 -15,-2.5 -15,-2.5 -15,-2.5 -5,-2.5 -7.5,0 -15,-2.5 -30,0 -15,-2.5 -15,0 -15,-2.5 -15,-2.5 -15,-5 -30,0 -15,-2.5 -30,0 -10,-12.5 -5,-12.5 0,-115 15,-15 75,0 15,2.5 75,0 15,2.5 27.5,0 15,2.5 15,2.5 15,2.5 10,2.5 80,0 15,2.5 45,0 15,2.5 15,0 15,2.5 15,2.5 15,5 90,0 15,2.5 15,0 15,2.5 15,0 15,2.5 15,2.5 7.5,2.5 7.5,0 15,2.5 57.5,0 15,2.5 15,0 15,2.5 15,2.5 15,2.5 10,2.5 35,0 15,2.5 30,0 15,2.5 15,0 15,2.5 15,5 7.5,2.5 37.5,0 15,2.5 30,0 15,2.5 15,2.5 15,5 5,2.5 40,0 15,2.5 15,0 15,2.5 15,2.5 15,5 15,0 12.5,2.5 15,0 15,2.5 15,0 15,2.5 15,5 10,2.5 20,0 15,2.5 15,0 15,2.5 15,2.5 15,5 2.5,2.5 27.5,0 15,2.5 15,2.5 15,2.5 15,5 2.5,0 12.5,2.5 15,0 15,2.5 15,2.5 15,5 10,2.5 5,0 15,2.5 15,0 15,2.5 15,5 10,5 5,0 15,2.5 15,0 15,5 15,5 5,2.5 10,0 12.5,2.5 15,2.5 15,2.5 12.5,5 2.5,2.5 15,0 15,2.5 15,5 12.5,5 2.5,0 15,2.5 15,2.5 15,5 10,5 5,0 15,2.5 15,5 15,7.5 15,0 15,5 15,5 5,2.5 10,2.5 15,2.5 15,7.5 7.5,2.5 7.5,2.5 15,2.5 15,7.5 5,2.5 10,2.5 15,2.5 15,10 15,2.5 15,5 10,5 5,2.5 15,5 15,7.5 15,5 15,5 5,5 10,2.5 12.5,5 10,7.5 5,0 15,7.5 10,5 5,2.5 15,7.5 10,5 5,2.5 15,7.5 7.5,5 7.5,2.5 15,10 2.5,0 12.5,7.5 12.5,7.5 2.5,2.5 15,7.5 7.5,5 7.5,2.5 15,12.5 15,7.5 7.5,5 7.5,5 12.5,10 2.5,2.5 15,10 2.5,2.5 12.5,7.5 7.5,7.5 7.5,5 10,7.5 5,2.5 12.5,12.5 2.5,2.5 15,12.5 15,12.5 0,2.5 15,12.5 2.5,0 12.5,12.5 2.5,2.5 12.5,12.5 0,2.5 15,12.5 0,2.5 12.5,12.5 2.5,2.5 12.5,12.5 2.5,2.5 10,12.5 5,5 7.5,7.5 7.5,12.5 2.5,2.5 10,15 2.5,0 10,15 5,5 5,7.5 7.5,15 2.5,0 10,15 2.5,5 7.5,10 7.5,12.5 0,2.5 10,12.5 5,12.5 2.5,2.5 10,12.5 2.5,10 5,5 7.5,15 2.5,10 5,5 7.5,12.5 2.5,12.5 2.5,2.5 10,15 2.5,15 10,12.5 5,15 0,5 7.5,10 5,15 2.5,12.5 10,15 2.5,15 2.5,7.5 2.5,7.5 7.5,12.5 5,15 0,7.5 2.5,7.5 7.5,12.5 2.5,15 2.5,12.5 0,2.5 7.5,15 5,12.5 2.5,15 0,7.5 5,7.5 5,15 2.5,12.5 2.5,15 0,7.5 2.5,7.5 5,15 5,12.5 0,15 2.5,15 0,2.5 5,10 2.5,15 2.5,15 2.5,15 2.5,12.5 0,10 2.5,5 2.5,15 5,15 0,12.5 2.5,15 0,15 2.5,15 0,5 2.5,7.5 2.5,15 2.5,15 2.5,15 2.5,12.5 0,30 2.5,12.5 0,30 2.5,15 2.5,12.5 2.5,15 0,15 2.5,15 0,27.5 2.5,15 0,70 2.5,15 0,100 -15,12.5" /><path
           inkscape:connector-curvature="0"
           id="path34"
           style="fill:#ff9900;fill-opacity:1;fill-rule:evenodd;stroke:none"
           d="m 4125,4332.5 -15,2.5 -15,2.5 -45,0 -15,2.5 -150,0 -15,-2.5 -30,0 -15,-2.5 -15,0 -15,-2.5 -15,-5 -2.5,0 -12.5,-2.5 -30,0 -15,-2.5 -12.5,-2.5 -15,-5 -7.5,-2.5 -7.5,0 -15,-2.5 -15,-2.5 -15,-2.5 -15,-7.5 -15,0 -15,-2.5 -15,-5 -12.5,-7.5 -17.5,0 -15,-5 -15,-7.5 -15,-2.5 -15,-5 -15,-7.5 -15,-2.5 -15,-5 -10,-7.5 -5,0 -15,-2.5 -15,-10 -15,-5 -15,-7.5 -5,-2.5 -10,-2.5 -15,-7.5 -7.5,-5 -7.5,-2.5 -15,-5 -7.5,-7.5 -7.5,0 -15,-7.5 -5,-5 -10,-2.5 -15,-10 0,-2.5 -15,-5 -12.5,-10 -2.5,0 -15,-7.5 -7.5,-7.5 -5,-2.5 -15,-10 -15,-7.5 -10,-7.5 -5,-2.5 -15,-12.5 -15,-7.5 -7.5,-7.5 -7.5,-2.5 -12.5,-10 -2.5,-2.5 -15,-12.5 -15,-10 -7.5,-5 -7.5,-5 -10,-10 -5,-2.5 -12.5,-10 -2.5,-2.5 -12.5,-12.5 -2.5,-2.5 -15,-12.5 -15,-12.5 0,-2.5 -15,-12.5 -15,-15 -15,-15 -15,-12.5 0,-2.5 -12.5,-12.5 -2.5,-2.5 -12.5,-12.5 -2.5,-2.5 -12.5,-12.5 -2.5,-2.5 -10,-10 -5,-7.5 -7.5,-7.5 -7.5,-12.5 -2.5,-2.5 -10,-15 -2.5,0 -12.5,-12.5 -2.5,-5 -7.5,-10 -7.5,-12.5 -2.5,-2.5 -10,-12.5 -2.5,-5 -10,-10 -5,-10 -2.5,-5 -10,-15 -2.5,-2.5 -10,-10 -5,-15 -12.5,-15 -2.5,-7.5 -5,-7.5 -7.5,-12.5 -2.5,-5 -7.5,-10 -5,-15 -2.5,-2.5 -7.5,-12.5 -5,-12.5 0,-2.5 -10,-12.5 -5,-15 0,-2.5 -10,-10 -5,-15 0,-7.5 -7.5,-7.5 -5,-15 -2.5,-12.5 -2.5,0 -10,-15 -2.5,-15 0,-5 -7.5,-10 -5,-12.5 -2.5,-15 0,-2.5 -7.5,-12.5 -5,-15 -2.5,-12.5 0,-5 -7.5,-10 -5,-15 -2.5,-15 0,-12.5 -2.5,0 -7.5,-15 -2.5,-15 -2.5,-12.5 0,-17.5 -7.5,-12.5 -2.5,-15 -2.5,-12.5 -2.5,-15 0,-22.5 -2.5,-7.5 -5,-12.5 -2.5,-15 -2.5,-15 0,-15 -2.5,-12.5 0,-60 -2.5,-12.5 -2.5,-15 0,-100 2.5,-15 2.5,-10 0,-60 2.5,-15 0,-15 2.5,-12.5 2.5,-15 5,-15 2.5,-5 0,-22.5 2.5,-15 2.5,-15 2.5,-15 7.5,-12.5 0,-15 2.5,-15 2.5,-15 7.5,-12.5 2.5,-2.5 0,-12.5 2.5,-15 5,-12.5 7.5,-10 0,-5 2.5,-15 5,-15 7.5,-10 0,-2.5 2.5,-15 5,-15 7.5,-10 0,-5 2.5,-12.5 10,-15 2.5,-2.5 2.5,-12.5 5,-15 7.5,-7.5 0,-5 5,-15 10,-12.5 0,-2.5 5,-15 10,-10 0,-2.5 5,-15 7.5,-12.5 2.5,-2.5 5,-12.5 7.5,-12.5 2.5,-2.5 7.5,-15 5,-7.5 2.5,-7.5 12.5,-12.5 0,-2.5 5,-12.5 10,-12.5 2.5,-2.5 10,-15 2.5,-2.5 5,-10 10,-12.5 2.5,-2.5 10,-15 2.5,-2.5 7.5,-12.5 7.5,-7.5 2.5,-5 12.5,-12.5 2.5,-2.5 10,-15 2.5,0 7.5,-12.5 7.5,-7.5 5,-7.5 10,-10 2.5,-5 12.5,-12.5 2.5,-2.5 12.5,-12.5 2.5,0 12.5,-15 15,-15 15,-12.5 0,-2.5 15,-12.5 15,-15 15,-12.5 0,-2.5 15,-12.5 2.5,-2.5 12.5,-10 2.5,-2.5 12.5,-12.5 5,-2.5 10,-7.5 7.5,-7.5 7.5,-5 15,-7.5 15,-15 2.5,0 12.5,-10 7.5,-5 7.5,-7.5 15,-7.5 15,-12.5 5,0 10,-10 15,-5 15,-12.5 5,-2.5 7.5,-7.5 15,-5 2.5,-2.5 12.5,-10 15,-2.5 0,-2.5 15,-10 10,-2.5 5,-5 15,-7.5 7.5,-2.5 7.5,-5 15,-7.5 7.5,-2.5 7.5,-5 15,-5 10,-2.5 5,-5 15,-7.5 15,-2.5 15,-10 15,-2.5 5,-2.5 10,-5 15,-7.5 15,0 0,-2.5 15,-7.5 15,-2.5 15,-2.5 15,-10 15,-2.5 15,-2.5 2.5,0 12.5,-7.5 15,-2.5 15,-2.5 15,-2.5 15,-7.5 15,-2.5 15,-2.5 22.5,0 7.5,-5 15,-5 12.5,-2.5 15,0 15,-2.5 27.5,0 2.5,-2.5 15,-2.5 15,-2.5 15,-2.5 15,0 15,-2.5 210,0 15,2.5 15,0 15,2.5 15,0 15,5 7.5,2.5 22.5,0 15,2.5 15,0 15,2.5 15,5 10,5 17.5,0 15,2.5 15,2.5 15,5 5,2.5 10,2.5 15,0 15,5 15,7.5 2.5,0 12.5,2.5 15,2.5 15,5 5,5 10,0 15,5 15,5 5,2.5 10,2.5 15,5 12.5,7.5 2.5,0 15,5 15,5 5,5 10,2.5 15,5 10,7.5 5,0 15,5 10,7.5 5,2.5 15,5 10,7.5 5,2.5 15,5 10,7.5 5,0 15,7.5 7.5,7.5 7.5,2.5 15,10 15,5 10,10 5,2.5 15,7.5 5,5 7.5,2.5 15,12.5 15,7.5 7.5,5 7.5,5 12.5,10 2.5,2.5 15,12.5 15,7.5 7.5,7.5 7.5,5 10,7.5 5,5 12.5,10 2.5,2.5 15,12.5 15,12.5 0,2.5 15,12.5 2.5,0 12.5,12.5 2.5,2.5 12.5,10 2.5,5 12.5,10 2.5,2.5 12.5,12.5 2.5,2.5 12.5,15 15,15 12.5,12.5 2.5,2.5 12.5,12.5 2.5,5 10,10 5,5 7.5,10 7.5,10 2.5,2.5 10,15 2.5,2.5 10,12.5 5,5 7.5,7.5 7.5,15 12.5,15 2.5,5 7.5,10 7.5,12.5 12.5,15 2.5,5 7.5,10 5,15 2.5,0 10,12.5 5,12.5 0,2.5 10,15 5,7.5 2.5,7.5 7.5,12.5 5,7.5 2.5,7.5 7.5,15 5,7.5 2.5,5 7.5,15 5,12.5 0,2.5 7.5,15 5,12.5 0,2.5 7.5,12.5 5,15 2.5,7.5 5,7.5 5,12.5 5,15 0,5 5,10 5,15 5,12.5 0,7.5 5,7.5 5,15 2.5,15 2.5,10 2.5,2.5 5,15 2.5,15 2.5,12.5 2.5,12.5 2.5,2.5 5,15 2.5,15 2.5,12.5 0,15 2.5,10 15,0 2.5,5 2.5,15 0,12.5 2.5,15 0,415 -2.5,15 0,15 -2.5,15 -2.5,2.5 -15,0 -2.5,10 0,15 -2.5,15 -2.5,15 -5,12.5 -2.5,2.5 -2.5,12.5 -2.5,15 -2.5,12.5 -5,15 -2.5,2.5 -2.5,12.5 -2.5,15 -5,12.5 -5,10 0,5 -5,15 -5,15 -5,7.5 0,5 -5,15 -5,15 -5,5 -2.5,10 -5,12.5 -7.5,12.5 0,2.5 -5,15 -7.5,15 0,2.5 -5,10 -7.5,15 -2.5,5 -5,10 -7.5,12.5 -2.5,7.5 -5,7.5 -7.5,15 -2.5,5 -5,10 -10,12.5 0,2.5 -5,12.5 -10,12.5 -2.5,2.5 -5,15 -7.5,7.5 -2.5,5 -12.5,15 0,2.5 -7.5,12.5 -7.5,10 -2.5,5 -12.5,12.5 0,2.5 -7.5,12.5 -7.5,7.5 -5,7.5 -10,12.5 -2.5,0 -10,15 -2.5,2.5 -7.5,12.5 -7.5,7.5 -5,7.5 -10,10 -2.5,2.5 -12.5,12.5 -2.5,2.5 -12.5,15 -15,15 -12.5,12.5 -2.5,2.5 -12.5,12.5 -2.5,2.5 -12.5,12.5 -2.5,2.5 -12.5,12.5 -2.5,2.5 -12.5,10 -2.5,2.5 -15,12.5 -15,12.5 0,2.5 -15,12.5 -2.5,0 -12.5,12.5 -5,2.5 -10,10 -7.5,5 -7.5,5 -15,10 -15,12.5 -2.5,0 -12.5,10 -7.5,5 -7.5,5 -15,10 -15,10 -7.5,5 -5,5 -15,7.5 -5,0 -10,10 -15,5 0,2.5 -15,10 -7.5,2.5 -7.5,5 -15,7.5 -5,2.5 -10,7.5 -15,5 -5,0 -10,10 -15,5 -5,0 -10,7.5 -15,5 -5,2.5 -10,7.5 -15,5 -10,2.5 -5,2.5 -15,7.5 -15,2.5 -2.5,0 -12.5,10 -15,2.5 -10,2.5 -5,2.5 -15,7.5 -15,2.5 -10,2.5 -5,2.5 -15,7.5 -15,2.5 -12.5,0 -2.5,2.5 -15,7.5 -15,2.5 -15,2.5 -10,0 -5,2.5 -15,7.5 -15,2.5 -15,0 -15,2.5 -2.5,0 -10,5 -15,2.5 -15,2.5 -15,2.5 -15,0 -15,2.5 -7.5,0 -7.5,2.5 -15,2.5 z m -75,-80 15,-2.5 15,-2.5 15,-2.5 15,0 15,-2.5 30,0 15,-2.5 15,-5 15,-2.5 15,-2.5 15,-2.5 20,0 7.5,-5 15,-5 15,-2.5 15,-2.5 7.5,0 7.5,-5 15,-5 15,-2.5 15,-2.5 15,-7.5 15,-5 15,-2.5 15,-7.5 15,-5 10,0 5,-5 15,-7.5 15,-2.5 2.5,0 12.5,-10 15,-2.5 5,-2.5 10,-7.5 15,-5 7.5,-2.5 7.5,-5 15,-7.5 7.5,0 7.5,-7.5 15,-5 5,-2.5 10,-7.5 15,-5 2.5,-2.5 12.5,-10 15,-5 15,-10 7.5,-2.5 7.5,-7.5 15,-7.5 15,-10 7.5,-5 7.5,-5 15,-7.5 0,-2.5 12.5,-10 5,-2.5 10,-10 10,-5 5,-5 15,-10 2.5,0 12.5,-12.5 2.5,0 12.5,-12.5 5,-2.5 10,-10 7.5,-5 7.5,-7.5 10,-7.5 5,-5 10,-7.5 5,-5 12.5,-10 2.5,-2.5 12.5,-12.5 2.5,-2.5 12.5,-12.5 2.5,-2.5 10,-10 5,-5 10,-10 5,-5 7.5,-10 7.5,-7.5 5,-7.5 10,-7.5 2.5,-5 12.5,-12.5 2.5,-2.5 12.5,-15 10,-12.5 5,-5 5,-10 10,-10 2.5,-5 12.5,-12.5 0,-2.5 7.5,-12.5 7.5,-7.5 5,-7.5 10,-12.5 0,-2.5 7.5,-15 7.5,-7.5 2.5,-5 12.5,-15 5,-15 10,-10 0,-5 7.5,-12.5 7.5,-10 2.5,-5 7.5,-15 5,-7.5 2.5,-5 7.5,-15 5,-7.5 2.5,-7.5 5,-15 7.5,-7.5 0,-5 7.5,-15 7.5,-12.5 0,-2.5 5,-15 5,-12.5 5,-7.5 2.5,-7.5 2.5,-15 7.5,-15 2.5,0 2.5,-12.5 5,-15 5,-15 2.5,0 2.5,-15 2.5,-12.5 5,-15 2.5,-7.5 2.5,-7.5 2.5,-12.5 2.5,-15 5,-15 2.5,-10 2.5,-5 2.5,-12.5 2.5,-15 2.5,-15 2.5,-15 2.5,-12.5 0,-2.5 2.5,-12.5 2.5,-15 0,-15 2.5,-12.5 0,-15 2.5,-15 2.5,-12.5 0,-30 2.5,-15 0,-27.5 2.5,-15 0,-15 -2.5,-12.5 0,-30 -2.5,-15 0,-27.5 -2.5,-15 -2.5,-15 0,-12.5 -2.5,-15 0,-15 -2.5,-12.5 -2.5,-15 -2.5,-15 -2.5,-15 -2.5,-12.5 -2.5,-15 -2.5,-15 -2.5,-5 -2.5,-10 -5,-12.5 -2.5,-15 -2.5,-15 -2.5,-5 -2.5,-10 -5,-12.5 -2.5,-15 -2.5,-12.5 -2.5,-2.5 -5,-12.5 -5,-15 -2.5,-15 -2.5,0 -7.5,-15 -2.5,-12.5 -2.5,-10 -5,-5 -5,-15 -5,-15 -7.5,-12.5 -7.5,-15 0,-5 -7.5,-10 -5,-15 -2.5,-5 -5,-7.5 -7.5,-15 -2.5,-7.5 -5,-7.5 -7.5,-15 -2.5,-5 -7.5,-7.5 -7.5,-15 0,-2.5 -10,-12.5 -5,-12.5 -12.5,-15 -2.5,-7.5 -7.5,-7.5 -7.5,-15 -10,-12.5 -5,-7.5 -7.5,-7.5 -7.5,-15 -12.5,-15 -2.5,-2.5 -10,-10 -5,-10 -5,-5 -10,-15 -12.5,-15 -2.5,-2.5 -12.5,-10 -2.5,-5 -10,-10 -5,-7.5 -7.5,-7.5 -7.5,-7.5 -5,-5 -10,-12.5 -5,-2.5 -10,-12.5 -2.5,-2.5 -12.5,-12.5 -2.5,-2.5 -12.5,-10 -2.5,-2.5 -12.5,-10 -5,-5 -10,-10 -5,-5 -10,-7.5 -7.5,-7.5 -7.5,-5 -10,-7.5 -5,-5 -12.5,-10 -2.5,-2.5 -12.5,-12.5 -2.5,0 -15,-10 -5,-5 -10,-5 -10,-7.5 -5,-2.5 -12.5,-12.5 -15,-7.5 -7.5,-7.5 -7.5,-2.5 -15,-10 0,-2.5 -15,-7.5 -7.5,-5 -7.5,-2.5 -15,-12.5 -15,-5 -12.5,-10 -2.5,0 -15,-7.5 -10,-5 -5,-2.5 -15,-7.5 -7.5,-5 -7.5,-2.5 -15,-7.5 -7.5,-5 -7.5,-2.5 -15,-5 -10,-7.5 -5,0 -15,-5 -12.5,-7.5 -2.5,-2.5 -15,-2.5 -15,-7.5 -5,-2.5 -10,-2.5 -15,-2.5 -15,-10 -15,-2.5 -15,-2.5 -15,-7.5 0,-2.5 -15,0 -15,-2.5 -15,-5 -7.5,-5 -7.5,-2.5 -15,0 -15,-2.5 -15,-5 -7.5,-5 -7.5,0 -12.5,-2.5 -15,0 -15,-2.5 -15,-5 -15,-5 -15,0 -15,-2.5 -30,0 -15,-2.5 -15,-2.5 -15,0 -15,-2.5 -15,-2.5 -5,-2.5 -150,0 -10,2.5 -15,2.5 -15,2.5 -15,2.5 -15,0 -15,2.5 -15,0 -15,2.5 -25,0 -5,2.5 -15,5 -12.5,2.5 -15,2.5 -15,0 -15,2.5 -2.5,0 -12.5,7.5 -15,2.5 -15,2.5 -15,2.5 -2.5,0 -12.5,7.5 -15,2.5 -15,2.5 -7.5,0 -7.5,5 -15,7.5 -15,2.5 -7.5,0 -7.5,5 -15,7.5 -15,2.5 -2.5,0 -12.5,7.5 -15,5 -10,2.5 -5,2.5 -15,7.5 -15,2.5 -15,10 -15,5 -2.5,0 -12.5,10 -15,5 -2.5,0 -12.5,10 -15,2.5 0,2.5 -15,10 -12.5,2.5 -2.5,2.5 -15,10 -5,2.5 -10,7.5 -15,5 0,2.5 -15,10 -10,5 -5,2.5 -12.5,10 -5,0 -10,10 -10,5 -5,5 -15,10 -2.5,0 -12.5,12.5 -5,0 -10,10 -7.5,5 -7.5,7.5 -12.5,7.5 -2.5,2.5 -15,10 -2.5,2.5 -12.5,12.5 -2.5,0 -12.5,12.5 -2.5,2.5 -12.5,12.5 -5,2.5 -10,10 -5,5 -10,10 -5,2.5 -10,12.5 -2.5,2.5 -12.5,12.5 -2.5,2.5 -12.5,12.5 -2.5,2.5 -12.5,12.5 -2.5,0 -12.5,15 -12.5,15 -2.5,2.5 -7.5,10 -7.5,10 -5,5 -10,12.5 -2.5,2.5 -12.5,15 -7.5,12.5 -7.5,7.5 -2.5,7.5 -12.5,12.5 0,2.5 -10,15 -5,5 -2.5,7.5 -12.5,15 -7.5,15 -7.5,7.5 -2.5,7.5 -7.5,12.5 -5,5 -2.5,10 -12.5,15 -2.5,12.5 -12.5,15 -2.5,15 -12.5,12.5 0,2.5 -2.5,12.5 -10,15 -2.5,2.5 -2.5,12.5 -5,15 -7.5,7.5 0,5 -5,15 -10,12.5 0,2.5 -2.5,15 -5,12.5 -5,12.5 -2.5,2.5 -2.5,15 -5,15 -5,10 -2.5,2.5 0,15 -5,15 -5,12.5 -2.5,5 -2.5,10 -2.5,15 -2.5,15 -5,12.5 -2.5,7.5 -2.5,7.5 0,15 -2.5,15 -2.5,12.5 -2.5,15 -5,15 -2.5,15 0,27.5 -2.5,15 0,12.5 -2.5,15 0,15 -2.5,15 -2.5,12.5 0,15 -2.5,15 0,72.5 2.5,12.5 0,15 2.5,15 2.5,15 0,12.5 2.5,15 0,15 2.5,12.5 0,30 2.5,15 5,12.5 2.5,15 2.5,15 2.5,15 0,12.5 2.5,7.5 2.5,7.5 5,15 2.5,15 2.5,12.5 2.5,10 2.5,5 5,15 5,12.5 0,15 2.5,2.5 5,12.5 5,15 2.5,12.5 2.5,5 5,10 5,15 2.5,15 10,12.5 5,15 0,7.5 7.5,7.5 5,15 2.5,12.5 2.5,0 10,15 2.5,15 12.5,15 2.5,12.5 0,2.5 12.5,12.5 2.5,15 12.5,12.5 2.5,12.5 5,2.5 7.5,15 2.5,5 7.5,10 7.5,12.5 0,2.5 12.5,12.5 2.5,7.5 5,7.5 10,15 12.5,12.5 2.5,7.5 7.5,7.5 7.5,15 12.5,15 2.5,2.5 10,10 5,7.5 7.5,7.5 7.5,10 2.5,5 12.5,12.5 0,2.5 12.5,12.5 2.5,2.5 12.5,12.5 2.5,2.5 12.5,12.5 2.5,2.5 12.5,10 2.5,5 10,10 5,5 10,10 5,2.5 10,12.5 5,2.5 12.5,10 2.5,2.5 12.5,12.5 2.5,2.5 12.5,12.5 2.5,0 15,12.5 2.5,2.5 12.5,7.5 7.5,5 7.5,5 10,10 5,2.5 12.5,12.5 2.5,0 15,7.5 5,5 10,5 10,10 5,2.5 12.5,7.5 5,5 10,5 15,10 15,7.5 10,5 5,2.5 15,12.5 2.5,0 12.5,5 15,10 15,5 12.5,10 2.5,0 15,5 12.5,7.5 2.5,2.5 15,2.5 15,10 15,2.5 15,10 5,2.5 10,2.5 15,5 12.5,7.5 2.5,0 15,2.5 15,5 7.5,5 7.5,2.5 15,2.5 15,5 7.5,5 7.5,0 15,2.5 15,5 12.5,7.5 17.5,0 15,2.5 15,5 12.5,7.5 17.5,0 15,2.5 15,0 12.5,5 15,5 15,0 15,2.5 15,0 15,2.5 15,0 15,2.5 15,2.5 15,0 15,2.5 10,2.5 155,0 15,-2.5" /><path
           inkscape:connector-curvature="0"
           id="path36"
           style="fill:#37c846;fill-opacity:1;fill-rule:evenodd;stroke:none"
           d="m 2512.5,3585 -15,2.5 -15,2.5 -15,0 -15,2.5 -105,0 -15,-2.5 -15,0 -15,-2.5 -15,-2.5 -10,-5 -20,0 -15,-2.5 -15,-5 -12.5,-5 -2.5,0 -15,-2.5 -15,-5 -15,-7.5 -15,-2.5 -12.5,-7.5 -10,-5 -5,0 -15,-7.5 -12.5,-5 -2.5,-2.5 -15,-7.5 -10,-5 -5,-2.5 -15,-7.5 -5,-5 -10,-5 -15,-10 -15,-10 -5,-2.5 -10,-7.5 -10,-7.5 -5,-5 -12.5,-10 -2.5,-2.5 -15,-12.5 -15,-12.5 -15,-15 -15,-15 -12.5,-15 -2.5,0 -12.5,-12.5 -2.5,-5 -10,-10 -5,-10 -5,-5 -10,-15 -10,-12.5 -5,-10 -5,-5 -7.5,-15 -2.5,-5 -7.5,-7.5 -5,-15 -2.5,-5 -7.5,-10 -5,-15 -2.5,-5 -5,-7.5 -5,-15 -5,-12.5 0,-2.5 -7.5,-15 -5,-12.5 -2.5,-15 -5,-15 -5,-15 -2.5,-12.5 -2.5,-15 0,-2.5 -2.5,-12.5 -2.5,-12.5 -2.5,-15 -2.5,-15 0,-15 -2.5,-12.5 0,-72.5 2.5,-15 0,-15 2.5,-12.5 2.5,-15 2.5,-15 2.5,-10 0,-5 2.5,-12.5 2.5,-15 5,-15 5,-12.5 0,-2.5 2.5,-12.5 5,-15 7.5,-15 5,-12.5 5,-15 5,-10 2.5,-5 5,-15 7.5,-10 2.5,-2.5 5,-15 7.5,-10 2.5,-5 7.5,-15 5,-5 5,-7.5 10,-12.5 0,-2.5 10,-15 5,-5 5,-7.5 10,-10 2.5,-5 12.5,-12.5 2.5,-2.5 12.5,-12.5 0,-2.5 15,-12.5 15,-15 15,-15 15,-12.5 2.5,-2.5 12.5,-10 5,-2.5 10,-10 10,-5 5,-5 15,-7.5 0,-2.5 15,-10 10,-5 5,-2.5 15,-7.5 5,-2.5 10,-7.5 15,-7.5 2.5,0 12.5,-7.5 15,-5 5,-2.5 10,-5 12.5,-5 15,-5 15,-7.5 15,-2.5 15,-2.5 2.5,0 12.5,-7.5 15,-2.5 15,-2.5 15,-2.5 5,0 10,-2.5 15,-2.5 15,-2.5 15,-2.5 15,0 15,-2.5 75,0 15,2.5 15,0 15,2.5 15,2.5 15,2.5 7.5,2.5 7.5,0 15,2.5 15,2.5 15,5 12.5,5 2.5,0 15,2.5 15,5 12.5,5 2.5,2.5 15,2.5 15,5 7.5,5 5,2.5 15,5 12.5,7.5 2.5,2.5 15,5 10,7.5 5,2.5 15,7.5 5,2.5 10,5 12.5,10 2.5,2.5 15,10 5,2.5 10,7.5 10,7.5 5,2.5 12.5,10 2.5,2.5 15,12.5 0,2.5 15,12.5 15,15 15,12.5 0,2.5 12.5,12.5 2.5,2.5 10,12.5 5,5 7.5,10 7.5,10 2.5,2.5 10,15 2.5,2.5 10,12.5 5,10 2.5,2.5 10,15 2.5,7.5 5,7.5 7.5,15 2.5,5 5,7.5 7.5,15 2.5,7.5 5,7.5 5,15 5,12.5 0,2.5 7.5,12.5 2.5,15 5,15 0,2.5 5,10 5,15 2.5,15 0,12.5 2.5,10 2.5,5 2.5,15 2.5,15 2.5,12.5 0,30 2.5,15 0,42.5 -2.5,15 0,27.5 -2.5,15 -2.5,15 -2.5,12.5 -2.5,7.5 -2.5,7.5 0,15 -2.5,12.5 -5,15 -5,12.5 0,2.5 -5,15 -2.5,12.5 -7.5,15 -5,15 -5,15 -5,5 -2.5,7.5 -7.5,15 -5,10 -2.5,5 -7.5,15 -5,7.5 -2.5,5 -10,15 -2.5,2.5 -5,12.5 -10,10 -2.5,2.5 -10,15 -2.5,5 -7.5,10 -7.5,7.5 -5,7.5 -10,10 -2.5,2.5 -12.5,15 -15,15 -15,12.5 0,2.5 -15,12.5 -15,12.5 -2.5,2.5 -12.5,10 -5,5 -10,7.5 -10,7.5 -5,2.5 -15,10 -2.5,0 -12.5,10 -10,5 -5,2.5 -15,10 -5,2.5 -10,5 -15,7.5 -2.5,2.5 -12.5,5 -15,5 -5,2.5 -7.5,5 -15,7.5 -15,2.5 -2.5,0 -12.5,7.5 -15,5 -15,2.5 -2.5,0 -12.5,5 -15,5 -15,2.5 -22.5,0 -7.5,5 z m -92.5,-147.5 17.5,0 15,-2.5 15,-2.5 15,-2.5 15,-2.5 15,-2.5 12.5,-2.5 2.5,0 15,-5 15,-2.5 15,-5 15,-7.5 15,-5 7.5,-2.5 7.5,-2.5 15,-7.5 7.5,-5 7.5,-2.5 15,-7.5 5,-5 7.5,-5 15,-7.5 15,-12.5 5,-2.5 10,-7.5 10,-7.5 5,-5 12.5,-10 2.5,-2.5 12.5,-10 2.5,-5 12.5,-10 2.5,-5 10,-10 5,-5 7.5,-7.5 7.5,-10 5,-5 10,-15 10,-15 5,-7.5 2.5,-5 10,-15 2.5,-5 5,-10 7.5,-15 2.5,-5 2.5,-7.5 7.5,-15 5,-12.5 0,-2.5 5,-15 5,-12.5 5,-15 0,-2.5 2.5,-12.5 2.5,-12.5 2.5,-15 2.5,-15 2.5,-15 0,-12.5 2.5,-15 0,-42.5 -2.5,-15 0,-15 -2.5,-15 -2.5,-12.5 -2.5,-15 -2.5,-15 -2.5,-10 0,-5 -5,-12.5 -5,-15 -5,-15 -5,-12.5 -7.5,-15 -2.5,-7.5 -2.5,-7.5 -7.5,-15 -5,-7.5 -2.5,-5 -10,-15 -2.5,-5 -5,-10 -10,-12.5 0,-2.5 -10,-12.5 -5,-5 -7.5,-10 -7.5,-7.5 -5,-7.5 -10,-10 -2.5,-5 -12.5,-10 -2.5,-2.5 -12.5,-10 -2.5,-5 -12.5,-10 -5,-5 -10,-5 -10,-7.5 -5,-5 -15,-10 -15,-10 -7.5,-5 -5,-2.5 -15,-7.5 -7.5,-5 -7.5,-2.5 -15,-7.5 -7.5,-2.5 -7.5,-5 -15,-5 -15,-5 -15,-5 -15,-5 -15,-5 -2.5,0 -12.5,-2.5 -15,-2.5 -15,-2.5 -15,-2.5 -15,0 -15,-2.5 -15,-2.5 -45,0 -15,2.5 -15,2.5 -15,0 -15,2.5 -15,2.5 -15,2.5 -12.5,2.5 -2.5,0 -15,5 -15,5 -15,5 -2.5,0 -12.5,5 -15,5 -7.5,5 -7.5,2.5 -15,7.5 -10,2.5 -5,2.5 -12.5,10 -7.5,2.5 -7.5,5 -15,10 -2.5,0 -12.5,10 -7.5,5 -7.5,7.5 -10,5 -5,5 -12.5,10 -2.5,2.5 -12.5,12.5 -2.5,2.5 -12.5,10 -2.5,5 -10,10 -5,5 -7.5,10 -7.5,10 -5,5 -10,12.5 -10,15 -5,7.5 -5,7.5 -7.5,15 -2.5,2.5 -5,10 -7.5,15 -2.5,5 -5,10 -5,15 -5,10 0,2.5 -5,15 -5,15 -5,12.5 0,2.5 -2.5,12.5 -2.5,15 -2.5,15 -2.5,12.5 -2.5,15 -2.5,15 0,72.5 2.5,12.5 2.5,15 2.5,15 2.5,15 2.5,12.5 2.5,15 5,15 5,12.5 5,15 0,2.5 5,12.5 5,15 5,7.5 2.5,5 7.5,15 5,10 2.5,5 7.5,15 5,5 5,7.5 10,15 10,15 5,5 7.5,10 7.5,7.5 5,5 10,12.5 2.5,2.5 12.5,12.5 2.5,2.5 12.5,10 2.5,2.5 12.5,10 5,5 10,7.5 7.5,7.5 7.5,2.5 12.5,12.5 2.5,0 15,7.5 7.5,5 7.5,5 12.5,7.5 5,2.5 10,5 15,7.5 7.5,2.5 7.5,2.5 15,5 12.5,7.5 2.5,0 15,5 15,2.5 15,5 2.5,0 12.5,2.5 15,2.5 15,2.5 15,2.5 15,2.5 15,2.5 57.5,0" /><path
           inkscape:connector-curvature="0"
           id="path38"
           style="fill:#bec8ff;fill-opacity:1;fill-rule:evenodd;stroke:none"
           d="M -1399242.5,492653 3892.5,2942.5 -1369485,565105 l -29757.5,-72452 z m 2806275,-979416 -1403140,489705.5 1373380,-562160.5 29760,72455" /><path
           inkscape:connector-curvature="0"
           id="path40"
           style="fill:#e6e6e6;fill-opacity:1;fill-rule:evenodd;stroke:none"
           d="M -581440,1321952.5 3892.5,2942.5 l -509892.5,1347590 -75440,-28580 z M 589228,-1316065 3892.5,2942.5 513788,-1344645 l 75440,28580" /><path
           inkscape:connector-curvature="0"
           id="path42"
           style="fill:#64b4ff;fill-opacity:1;fill-rule:evenodd;stroke:none"
           d="M -1392515,510080 3892.5,2942.5 -1377345,547055 -1392515,510080 z M 1400305,-504190 3892.5,2942.5 l 1381240,-544107.5 15172.5,36975" /><path
           inkscape:connector-curvature="0"
           id="path44"
           style="fill:none;stroke:#e0e0b3;stroke-width:7.5;stroke-linecap:butt;stroke-linejoin:miter;stroke-miterlimit:10;stroke-opacity:1;stroke-dasharray:none"
           d="M 4585,5660 2400,2942.5" /><path
           inkscape:connector-curvature="0"
           id="path46"
           style="fill:none;stroke:#e0e0b3;stroke-width:7.5;stroke-linecap:butt;stroke-linejoin:miter;stroke-miterlimit:10;stroke-opacity:1;stroke-dasharray:none"
           d="M 2400,2942.5 2662.5,5660" /><path
           inkscape:connector-curvature="0"
           id="path48"
           style="fill:none;stroke:#e0e0b3;stroke-width:7.5;stroke-linecap:butt;stroke-linejoin:miter;stroke-miterlimit:10;stroke-opacity:1;stroke-dasharray:none"
           d="M 32.5,0 2400,2942.5" /><path
           inkscape:connector-curvature="0"
           id="path50"
           style="fill:none;stroke:#e0e0b3;stroke-width:7.5;stroke-linecap:butt;stroke-linejoin:miter;stroke-miterlimit:10;stroke-opacity:1;stroke-dasharray:none"
           d="M 2400,2942.5 2117.5,0" /><path
           style="fill:none;stroke:#b3e6ff;stroke-width:7.5;stroke-linecap:butt;stroke-linejoin:miter;stroke-miterlimit:10;stroke-opacity:1;stroke-dasharray:none"
           d="m 3242.5,2375 c -231.0501,-28.6773 -475.0831,48.2179 -639.1271,215.4987 -71.2289,73.4186 -130.456,161.7557 -159.063,260.5188 -9.4752,28.2016 -19.1915,97.255 -61.2842,50.2621 -5.5916,-57.3915 12.8065,-114.5368 24.3938,-170.5334 50.6197,-225.4844 214.3833,-421.2686 427.0462,-511.4625 170.3165,-75.7351 368.2541,-85.2538 545.8622,-29.6519 204.1554,62.1793 378.2016,216.1918 462.5963,412.4632 29.9094,69.0678 52.0738,143.146 59.7722,218.4583 27.2119,36.7208 1.6303,136.1385 -43.3073,77.2566 -1.1441,-48.0461 -26.9593,-91.1009 -44.8129,-134.5394 C 3743.6754,2623.6033 3624.8627,2510.376 3482.8873,2444.581 3407.1112,2408.0069 3325.965,2385.1076 3242.5,2375 z"
           id="path52"
           inkscape:connector-curvature="0" /><path
           style="fill:none;stroke:#b3e6ff;stroke-width:7.5;stroke-linecap:butt;stroke-linejoin:miter;stroke-miterlimit:10;stroke-opacity:1;stroke-dasharray:none"
           d="m 1915,3050 c -206.2467,52.3883 -406.5752,125.5308 -602.8588,207.3141 -131.7028,54.0708 -258.2433,119.5309 -384.56486,184.7024 -55.45224,11.6631 -22.30991,-84.6497 -35.07634,-121.9094 -5.75135,-223.5551 -8.25334,-447.3604 -1.07946,-670.9617 11.23002,-45.526 -21.96392,-169.928 58.78008,-123.1178 186.62118,85.2454 379.45038,156.324 575.00448,218.3829 228.5919,72.3108 462.1949,128.8725 699.474,164.6303 31.6289,7.5176 142.6218,-0.9647 110.0076,49.7991 -64.1804,22.3007 -134.5281,18.9645 -200.2027,37.5804 -73.4633,16.0452 -146.7505,34.1664 -219.484,53.5797 z"
           id="path54"
           inkscape:connector-curvature="0" /><path
           inkscape:connector-curvature="0"
           id="path56"
           style="fill:none;stroke:#b3e6ff;stroke-width:7.5;stroke-linecap:butt;stroke-linejoin:miter;stroke-miterlimit:10;stroke-opacity:1;stroke-dasharray:none"
           d="m 4392.5,3052.5 -10,-2.5 -5,0 -15,-5 -15,-2.5 -15,-5 -2.5,0 -12.5,-2.5 -15,-5 -15,-2.5 -15,-5 -15,-2.5 -15,-5 -12.5,-2.5 -15,-5 -5,0 -10,-2.5 -15,-2.5 -15,-2.5 -15,-5 -12.5,-2.5 -2.5,0 -15,-2.5 -15,-2.5 -15,-2.5 -15,-2.5 -12.5,-2.5 -2.5,-2.5 -15,0 -15,-2.5 -15,-2.5 -15,0 -15,-2.5 -15,-5 -5,0 -10,-5 -12.5,-10 0,-15 12.5,-7.5 15,-5 15,-5 15,-2.5 15,0 15,-2.5 15,-2.5 15,0 15,-2.5 7.5,0 7.5,-2.5 15,-2.5 15,-2.5 15,-2.5 15,-2.5 15,-2.5 2.5,0 12.5,-2.5 15,-2.5 15,-2.5 15,-2.5 12.5,-2.5 5,-2.5 10,-2.5 15,-2.5 15,-2.5 15,-2.5 15,-2.5 15,-5 15,-2.5 15,-5 15,-2.5 5,0 10,-2.5 15,-5 15,-2.5 15,-2.5 5,-2.5 10,-2.5 15,-2.5 15,-5 15,-2.5 2.5,-2.5 12.5,-2.5 15,-5 15,-2.5 12.5,-2.5 2.5,-2.5 15,-2.5 15,-5 15,-2.5 5,-2.5 10,-2.5 15,-5 15,-5 10,-2.5 5,0 15,-5 15,-5 12.5,-2.5 2.5,-2.5 15,-2.5 15,-5 15,-5 12.5,-5 15,-5 15,-5 2.5,0 12.5,-5 15,-5 15,-2.5 2.5,-2.5 12.5,-5 15,-5 15,-2.5 15,-7.5 15,-5 12.5,-2.5 2.5,-2.5 15,-5 15,-5 7.5,-2.5 7.5,-2.5 15,-5 15,-5 2.5,-2.5 12.5,-5 15,-5 10,-2.5 5,-2.5 15,-5 15,-7.5 2.5,0 12.5,-5 15,-5 10,-5 5,-2.5 15,-5 15,-5 0,-2.5 15,-5 15,-5 5,-2.5 10,-5 15,-5 10,-5 5,-2.5 15,-5 15,-7.5 15,-5 12.5,-7.5 5,0 10,-5 15,-7.5 7.5,-2.5 7.5,-5 15,-5 10,-5 5,-2.5 15,-2.5 15,0 2.5,5 0,30 2.5,12.5 0,15 2.5,15 0,42.5 2.5,15 0,70 2.5,15 0,430 -2.5,15 0,100 -2.5,15 0,57.5 -2.5,12.5 0,30 -2.5,15 0,27.5 -2.5,7.5 -15,0 -15,-2.5 -5,-5 -10,-5 -15,-7.5 -2.5,-2.5 -12.5,-5 -15,-7.5 -15,-7.5 -12.5,-7.5 -15,-7.5 -15,-7.5 -15,-7.5 -12.5,-7.5 -2.5,0 -15,-7.5 -12.5,-5 -2.5,-2.5 -15,-7.5 -12.5,-5 -2.5,-2.5 -15,-7.5 -12.5,-5 -2.5,0 -15,-7.5 -12.5,-7.5 -2.5,0 -15,-7.5 -15,-5 -15,-7.5 -15,-7.5 -2.5,0 -12.5,-5 -15,-7.5 -5,-2.5 -10,-2.5 -15,-7.5 -7.5,-2.5 -7.5,-5 -15,-5 -12.5,-5 -2.5,0 -15,-7.5 -15,-5 -2.5,-2.5 -12.5,-5 -15,-5 -10,-5 -5,0 -15,-7.5 -15,-5 -15,-5 -15,-7.5 -10,-2.5 -5,-2.5 -15,-5 -12.5,-5 -5,-2.5 -10,-2.5 -15,-5 -15,-7.5 -15,-5 -15,-5 -12.5,-2.5 -2.5,-2.5 -15,-5 -15,-5 -10,-2.5 -5,-2.5 -15,-5 -15,-5 -10,-2.5 -5,-2.5 -15,-2.5 -15,-5 -10,-5 -5,0 -15,-5 -15,-5 -12.5,-2.5 -2.5,-2.5 -15,-2.5 -15,-5 -15,-5 -2.5,0 -12.5,-2.5 -15,-5 -15,-5 z" /><path
           style="fill:none;stroke:#b3e6ff;stroke-width:7.5;stroke-linecap:butt;stroke-linejoin:miter;stroke-miterlimit:10;stroke-opacity:1;stroke-dasharray:none"
           d="m 3467.5,2990 c -108.1188,4.9733 -216.1312,7.9709 -324.3557,10.1541 -154.7704,-3.5595 -309.5542,-7.1637 -463.8791,-19.4739 -67.2325,-8.7452 -136.7606,-3.0464 -202.5607,-21.1389 -55.2342,-27.807 31.5198,-46.6353 57.9518,-44.6327 93.0925,-6.1626 185.5245,-18.6047 278.7355,-23.3199 120.8305,-8.0711 241.7348,-10.9578 362.7369,-11.6401 147.2721,2.7792 294.6888,8.3922 441.3713,22.5514 68.9482,9.8914 140.1022,5.8602 207.5,25 33.027,43.7026 -66.0746,40.7124 -92.7817,45 -88.4161,4.2153 -176.2535,14.4672 -264.7183,17.5 z"
           id="path58"
           inkscape:connector-curvature="0" /><path
           style="fill:none;stroke:#b3e6ff;stroke-width:7.5;stroke-linecap:butt;stroke-linejoin:miter;stroke-miterlimit:10;stroke-opacity:1;stroke-dasharray:none"
           d="m 3907.5,3222.5 c -7.0324,23.8378 -9.677,48.5247 -17.5,72.5 -8.4951,16.3656 -11.5916,37.0987 -20,53.5667 -7.7872,27.9516 -24.8493,53.1145 -36.4568,79.8686 -17.4486,32.0591 -35.7043,60.2378 -57.2133,90.1815 -31.1085,39.6693 -61.9808,81.7647 -101.6832,113.5232 -27.6132,28.0526 -61.757,50.3771 -93.5269,73.5501 -31.7347,20.5961 -64.7484,38.5333 -98.6198,54.3099 -62.8906,29.6144 -130.4039,49.1302 -198.5181,63.0864 -59.7928,8.1028 -120.3112,15.7977 -181.0181,10.7409 -52.097,-5.0929 -104.9565,-8.9246 -154.8841,-25.5574 -49.7657,-11.4431 -98.7797,-28.9028 -144.1965,-51.94 C 2758.1109,3736.666 2715.2925,3709.0007 2675,3680 c -40.5812,-33.7055 -82.892,-68.7457 -117.5,-110 -48.6096,-56.2031 -90.6493,-118.9379 -120,-187.5 -10.0306,-26.5045 -24.4443,-51.9219 -30,-80 -12.7645,-36.1768 -21.2608,-73.3796 -27.5,-111.0667 -2.2012,-40.0046 -13.0414,-78.97 -10,-119.5998 -2.6393,-26.3786 -1.8433,-53.9653 7.5,-79.3335 20.5976,-12.7785 41.3689,-2.6856 42.2557,21.7672 8.5167,23.5758 16.727,47.2899 16.9744,72.6531 11.7701,24.4747 15.605,52.1318 27.7814,76.6142 28.9844,65.4091 66.8492,126.1644 115.0551,179.4455 30.8575,35.1902 63.7055,64.1552 98.6235,93.6151 52.9998,39.6152 109.5368,73.8485 171.3802,98.1901 32.3473,12.7036 65.2972,24.5482 98.9478,33.3012 60.0144,14.7053 121.7799,24.2339 183.5181,25.5863 32.9007,2.6216 66.0146,-3.2811 98.9819,-4.2591 51.9761,-8.0485 103.8184,-16.6874 153.5181,-33.0863 31.7999,-11.0544 63.9744,-23.4776 94.6389,-36.8324 51.748,-25.6493 101.3046,-55.4137 145.8909,-92.0609 29.4323,-21.6662 55.6212,-48.6302 79.934,-74.934 26.3068,-29.0763 52.3586,-63.6398 75,-97.5 24.7607,-37.1255 42.1999,-79.6631 60,-120 3.3047,-25.6671 21.4897,-46.792 18.0864,-73.5181 6.1663,-24.2386 14.3451,-48.9735 24.4356,-71.5039 18.1413,-9.8671 45.0985,5.4012 39.978,28.222 6.3024,43.9096 -0.3516,88.2041 -5,131.8 -3.7206,23.7395 -3.8369,48.4818 -10,72.5 z"
           id="path60"
           inkscape:connector-curvature="0" /><path
           style="fill:none;stroke:#fafa1e;stroke-width:7.5;stroke-linecap:butt;stroke-linejoin:miter;stroke-miterlimit:10;stroke-opacity:1;stroke-dasharray:none"
           d="m 4065,4385 c -168.5834,21.8125 -342.1218,12.049 -507.5,-25 -170.5583,-36.4264 -329.6697,-100.4049 -477.5,-190 -182.7938,-112.425 -351.7597,-269.2386 -467.8858,-451.4629 -93.1099,-138.2469 -158.9665,-297.14 -200.2386,-461.3482 C 2379.0453,3096.4616 2364.8781,2928.4643 2390,2765 c 20.4336,-176.8995 78.8437,-348.5619 165,-502.5 83.7614,-152.7193 195.0915,-290.7672 330,-405 145.2326,-122.8805 312.316,-218.2429 492.5,-282.5 169.2671,-54.8698 350.7761,-89.0924 531.6282,-85 186.5608,0.9584 363.4498,38.202 536.6702,101.3831 136.4445,53.3971 265.5565,121.5192 379.2016,211.1169 157.5827,116.9599 291.6418,269.1858 390,437.5 78.1607,138.0014 132.4597,283.3437 162.5,437.5 28.575,17.4748 24.9564,76.0821 27.5,116.8256 -4.3105,133.4773 9.9362,268.4904 -10,400.6744 -33.8241,9.2707 -21.3908,74.7383 -38.1244,107.8111 -37.2081,127.716 -85.4407,252.172 -156.8756,367.1889 -116.6816,194.6926 -284.4018,363.9631 -477.5,485 -120.387,79.6425 -258.3321,138.3745 -397.9811,180.1604 C 4239.8816,4357.0975 4152.6992,4379.5229 4065,4385 z"
           id="path62"
           inkscape:connector-curvature="0" /><path
           style="fill:none;stroke:#fafa1e;stroke-width:7.5;stroke-linecap:butt;stroke-linejoin:miter;stroke-miterlimit:10;stroke-opacity:1;stroke-dasharray:none"
           d="m 4020,4125 c 425.6986,-40.6523 827.1462,-308.7227 1003.7155,-701.9131 195.0399,-412.0475 110.1758,-933.3885 -202.7034,-1264.38 -350.7743,-391.6233 -956.3414,-510.8212 -1434.6782,-299.6335 -423.2755,172.7531 -731.0361,605.7052 -731.086,1065.9881 -11.3883,391.9557 199.0358,775.1169 525.0363,990.7557 C 3424.2797,4081.3596 3727.3271,4152.3884 4020,4125 z"
           id="path64"
           inkscape:connector-curvature="0" /><path
           style="fill:none;stroke:#8cff50;stroke-width:7.5;stroke-linecap:butt;stroke-linejoin:miter;stroke-miterlimit:10;stroke-opacity:1;stroke-dasharray:none"
           d="m 5392.5,2432.5 c -66.5473,-16.7029 -127.6383,-52.4124 -189.2585,-82.8517 -211.4708,-108.982 -391.7015,-274.9818 -522.0848,-473.5118 -143.0017,-217.0987 -239.3223,-461.0414 -323.6732,-705.9006 -40.8603,-118.8894 -79.7036,-239.04564 -114.376,-360.10376 -9.619,-67.58641 91.1549,-26.29194 131.9111,-37.44807 159.6159,1.30602 319.7852,-4.04114 479.0499,3.15667 29.9564,42.41302 37.5062,100.88448 60.334,149.50594 117.0312,305.04592 250.3642,609.17492 454.3376,866.96682 54.8376,24.1628 31.7878,95.752 38.9786,145.1747 -1.517,157.122 1.6128,314.2802 -1.5088,471.3822 l -5.194,12.7155 -8.5159,10.9141 0,0 z"
           id="path66"
           inkscape:connector-curvature="0" /><path
           style="fill:none;stroke:#8cff50;stroke-width:7.5;stroke-linecap:butt;stroke-linejoin:miter;stroke-miterlimit:10;stroke-opacity:1;stroke-dasharray:none"
           d="m 3975,5112.5 c -171.543,5.0641 -343.1754,2.4189 -514.7537,1.291 -60.5444,-99.9906 -30.2745,-247.2022 -70.7655,-363.2341 -67.4583,-366.1542 -254.851,-724.2114 -572.9385,-931.6838 -395.2856,-263.7885 -873.6231,-354.0027 -1334.7719,-428.7919 -194.4625,-31.6366 -391.9364,-48.8362 -586.36426,-75.8235 -47.34834,-101.544 11.61231,-186.8847 124.00896,-146.7577 256.5131,14.4069 512.3279,33.5289 768.1767,57.2974 476.2458,50.6509 964.0111,104.1278 1409.9082,292.7026 285.814,123.3207 527.5535,352.7402 637.43,647.059 118.1832,296.2401 155.167,618.5612 155.07,935.441 l -15,12.5 z"
           id="path68"
           inkscape:connector-curvature="0" /><path
           style="fill:none;stroke:#ff9900;stroke-width:7.5;stroke-linecap:butt;stroke-linejoin:miter;stroke-miterlimit:10;stroke-opacity:1;stroke-dasharray:none"
           d="m 4125,4332.5 c -124.6552,12.143 -252.9179,12.3214 -376.1245,-7.5 -75.7354,-9.0648 -149.009,-29.487 -221.3755,-47.5 -79.2667,-28.1847 -159.3102,-53.2913 -232.5,-95 -74.7412,-29.9148 -142.9945,-81.9449 -212.5,-127.5 -97.7935,-73.946 -188.975,-155.2229 -264.4721,-251.7082 -71.4326,-80.934 -128.3196,-178.2432 -176.2288,-273.9927 -20.857,-47.6635 -43.05,-92.2676 -58.4471,-143.7124 -16.5999,-48.2924 -33.5911,-91.2623 -40.852,-141.149 -18.9724,-74.6409 -31.8805,-153.5048 -31.5811,-232.3434 -8.2308,-87.2862 0.02,-175.3678 9.0811,-262.0943 13.3989,-52.1879 14.6512,-107.6715 35,-157.5 11.9008,-55.6749 35.4666,-110.204 54.4721,-164.2082 33.3113,-69.6281 62.775,-142.7547 109.4297,-207.1936 C 2793.545,2093.3569 2896.7144,1986.3684 3007.5,1890 c 69.3746,-59.3914 144.8875,-106.1179 220,-155 54.2525,-24.3243 112.9439,-59.2437 171.7082,-79.4721 50.6858,-21.5466 97.7838,-37.3345 151.2444,-51.8533 57.7144,-19.1895 118.5347,-28.5093 177.6097,-41.1746 94.5062,-13.2398 191.1696,-18.3317 288.1829,-15 95.0822,-1.0654 186.8654,17.3706 278.9033,35.0495 94.5083,23.4679 188.9045,52.6378 277.3515,92.4505 134.6217,60.7053 263.441,140.2311 372.5,242.5 96.8894,83.6286 182.4148,185.8649 250.0495,295.1485 77.9853,122.3764 135.0905,265.65 169.9505,407.3515 1.2757,54.5753 32.9717,66.001 35,115 -2.9885,153.2239 6.1956,307.4553 -5,460 -34.8264,9.5309 -22.1456,74.3523 -39.0811,107.9057 -43.9938,157.1537 -112.7083,310.993 -209.1198,442.7952 -103.4176,144.575 -238.3632,270.9225 -389.2991,366.7991 -79.0513,49.3497 -162.8535,93.411 -252.9526,126.3254 -57.759,22.5126 -119.1769,43.0791 -180,57.5 C 4259.8121,4313.31 4192.4787,4323.0722 4125,4332.5 z"
           id="path70"
           inkscape:connector-curvature="0" /><path
           style="fill:none;stroke:#ff9900;stroke-width:7.5;stroke-linecap:butt;stroke-linejoin:miter;stroke-miterlimit:10;stroke-opacity:1;stroke-dasharray:none"
           d="m 4050,4252.5 c 511.3853,-30.1456 996.2101,-362.088 1189.512,-839.4727 184.8556,-430.9671 86.5332,-956.48 -225.463,-1302.7881 -331.2815,-389.598 -886.4071,-562.5389 -1381.363,-441.6346 -484.7437,106.2472 -900.1338,496.8514 -1010.1881,983.9161 -103.6112,429.641 37.6898,905.8221 357.891,1210.3682 C 3259.371,4139.4099 3660.2162,4277.0733 4050,4252.5 z"
           id="path72"
           inkscape:connector-curvature="0" /><path
           style="fill:none;stroke:#37c846;stroke-width:7.5;stroke-linecap:butt;stroke-linejoin:miter;stroke-miterlimit:10;stroke-opacity:1;stroke-dasharray:none"
           d="m 2512.5,3585 c -308.7178,54.8429 -648.1099,-128.2413 -751.978,-428.1701 -74.7403,-202.9671 -36.881,-442.9821 102.6087,-609.4509 175.7514,-220.3889 492.7292,-312.4791 758.9291,-218.7858 254.3356,83.8281 451.9221,329.966 455.55,601.1642 5.8144,253.7891 -155.9259,497.091 -386.4122,599.8708 -56.2904,28.2177 -118.1981,42.6644 -178.6976,55.3718 z"
           id="path74"
           inkscape:connector-curvature="0" /><path
           style="fill:none;stroke:#37c846;stroke-width:7.5;stroke-linecap:butt;stroke-linejoin:miter;stroke-miterlimit:10;stroke-opacity:1;stroke-dasharray:none"
           d="m 2420,3437.5 c 38.0169,-0.6801 75.7439,-10.1374 112.9615,-16.8205 21.6985,-4.7002 42.6623,-11.2738 62.7308,-20.9103 24.5809,-6.9173 46.6976,-20.0563 68.8431,-31.8046 17.1991,-12.2245 35.7453,-22.408 52.373,-35.6459 29.0226,-21.5716 54.1931,-45.8807 78.0916,-72.3187 39.8016,-43.1153 67.9371,-95.9137 90,-150 9.0639,-28.374 19.2109,-56.6205 22.3661,-86.6966 7.599,-41.0164 10.0372,-83.008 5.1339,-124.4388 -4.7046,-39.9319 -11.3143,-79.7887 -26.141,-117.2877 -12.7953,-32.6997 -26.3887,-65.014 -46.359,-94.0769 -17.2525,-31.9833 -43.5147,-58.6011 -66.9954,-86.0963 -21.0628,-15.6997 -36.212,-36.9402 -59.913,-49.085 -37.0252,-30.9679 -81.2483,-52.2247 -125.5916,-69.8187 -45.214,-16.9912 -92.3558,-29.0045 -140.6786,-30.9464 -35.6702,-8.2263 -72.2762,-3.0833 -107.9568,0.9464 -49.7249,3.7145 -97.8299,18.3772 -143.7596,36.5967 -18.7052,11.2294 -41.2045,14.8396 -57.8358,29.3136 -26.0876,12.6663 -48.0498,31.3515 -71.34,48.1605 -29.8691,24.6653 -56.3867,51.8835 -80,82.5 -39.3291,47.9449 -64.8895,105.0607 -83.0673,163.7744 -7.9758,33.6487 -14.6424,68.6857 -17.8619,103.2902 -0.9388,36.7415 -0.5424,73.273 7.9732,109.2039 4.6536,39.9738 19.8969,77.3432 33.6235,114.5557 15.0542,26.9834 26.9541,55.3827 46.3868,79.5802 25.8288,37.9257 57.9493,71.6419 94.0519,100.0602 12.5386,13.0368 28.5942,19.5578 40.4646,32.9646 31.5218,12.8425 58.6437,37.5194 92.7308,45.9103 19.7246,7.9612 38.3042,17.7217 60,20 36.0738,9.3849 73.7953,15.1642 110.9046,19.0897 16.2882,0 32.5764,0 48.8646,0 z"
           id="path76"
           inkscape:connector-curvature="0" /><path
           inkscape:connector-curvature="0"
           id="path78"
           style="fill:none;stroke:#64b4ff;stroke-width:7.5;stroke-linecap:butt;stroke-linejoin:miter;stroke-miterlimit:10;stroke-opacity:1;stroke-dasharray:none"
           d="m 0,4302.5 3892.5,-1360" /><path
           inkscape:connector-curvature="0"
           id="path80"
           style="fill:none;stroke:#64b4ff;stroke-width:7.5;stroke-linecap:butt;stroke-linejoin:miter;stroke-miterlimit:10;stroke-opacity:1;stroke-dasharray:none"
           d="M 3892.5,2942.5 0,4537.5" /><path
           inkscape:connector-curvature="0"
           id="path82"
           style="fill:none;stroke:#64b4ff;stroke-width:7.5;stroke-linecap:butt;stroke-linejoin:miter;stroke-miterlimit:10;stroke-opacity:1;stroke-dasharray:none"
           d="m 5670,2322.5 -1777.5,620" /><path
           inkscape:connector-curvature="0"
           id="path84"
           style="fill:none;stroke:#64b4ff;stroke-width:7.5;stroke-linecap:butt;stroke-linejoin:miter;stroke-miterlimit:10;stroke-opacity:1;stroke-dasharray:none"
           d="M 3892.5,2942.5 5670,2215" /><path
           inkscape:connector-curvature="0"
           id="path86"
           style="fill:none;stroke:#aaaaaa;stroke-width:7.5;stroke-linecap:butt;stroke-linejoin:miter;stroke-miterlimit:10;stroke-opacity:1;stroke-dasharray:none"
           d="m 2687.5,5660 1205,-2717.5" /><path
           inkscape:connector-curvature="0"
           id="path88"
           style="fill:none;stroke:#aaaaaa;stroke-width:7.5;stroke-linecap:butt;stroke-linejoin:miter;stroke-miterlimit:10;stroke-opacity:1;stroke-dasharray:none"
           d="M 3892.5,2942.5 2865,5660" /><path
           inkscape:connector-curvature="0"
           id="path90"
           style="fill:none;stroke:#aaaaaa;stroke-width:7.5;stroke-linecap:butt;stroke-linejoin:miter;stroke-miterlimit:10;stroke-opacity:1;stroke-dasharray:none"
           d="M 5200,0 3892.5,2942.5" /><path
           inkscape:connector-curvature="0"
           id="path92"
           style="fill:none;stroke:#aaaaaa;stroke-width:7.5;stroke-linecap:butt;stroke-linejoin:miter;stroke-miterlimit:10;stroke-opacity:1;stroke-dasharray:none"
           d="M 3892.5,2942.5 5007.5,0" /><path
           inkscape:connector-curvature="0"
           id="path94"
           style="fill:none;stroke:#64b4ff;stroke-width:7.5;stroke-linecap:butt;stroke-linejoin:miter;stroke-miterlimit:10;stroke-opacity:1;stroke-dasharray:none"
           d="m 0,4357.5 3892.5,-1415" /><path
           inkscape:connector-curvature="0"
           id="path96"
           style="fill:none;stroke:#64b4ff;stroke-width:7.5;stroke-linecap:butt;stroke-linejoin:miter;stroke-miterlimit:10;stroke-opacity:1;stroke-dasharray:none"
           d="M 3892.5,2942.5 0,4477.5" /><path
           inkscape:connector-curvature="0"
           id="path98"
           style="fill:none;stroke:#64b4ff;stroke-width:7.5;stroke-linecap:butt;stroke-linejoin:miter;stroke-miterlimit:10;stroke-opacity:1;stroke-dasharray:none"
           d="m 5670,2297.5 -1777.5,645" /><path
           inkscape:connector-curvature="0"
           id="path100"
           style="fill:none;stroke:#64b4ff;stroke-width:7.5;stroke-linecap:butt;stroke-linejoin:miter;stroke-miterlimit:10;stroke-opacity:1;stroke-dasharray:none"
           d="M 3892.5,2942.5 5670,2242.5" /><path
           inkscape:connector-curvature="0"
           id="path102"
           style="fill:#ffff00;fill-opacity:1;fill-rule:evenodd;stroke:none"
           d="m 2655,3467.5 -7.5,5 -15,5 -15,-5 -7.5,-5 -7.5,-12.5 -2.5,-2.5 -10,-15 0,-15 2.5,-12.5 10,-12.5 12.5,-2.5 2.5,-2.5 15,-5 15,-2.5 15,10 12.5,15 0,5 7.5,7.5 0,15 -7.5,10 -2.5,5 -10,10 -7.5,5" /><path
           inkscape:connector-curvature="0"
           id="path104"
           style="fill:none;stroke:#ff0000;stroke-width:7.5;stroke-linecap:butt;stroke-linejoin:miter;stroke-miterlimit:10;stroke-opacity:1;stroke-dasharray:none"
           d="M 2662.5,3432.5 2635,3405" /><path
           inkscape:connector-curvature="0"
           id="path106"
           style="fill:none;stroke:#ff0000;stroke-width:7.5;stroke-linecap:butt;stroke-linejoin:miter;stroke-miterlimit:10;stroke-opacity:1;stroke-dasharray:none"
           d="M 2652.5,3445 2615,3407.5" /><path
           inkscape:connector-curvature="0"
           id="path108"
           style="fill:none;stroke:#ff0000;stroke-width:7.5;stroke-linecap:butt;stroke-linejoin:miter;stroke-miterlimit:10;stroke-opacity:1;stroke-dasharray:none"
           d="m 2640,3457.5 -35,-35" /><path
           inkscape:connector-curvature="0"
           id="path110"
           style="fill:none;stroke:#64b4ff;stroke-width:7.5;stroke-linecap:butt;stroke-linejoin:miter;stroke-miterlimit:10;stroke-opacity:1;stroke-dasharray:30, 30;stroke-dashoffset:0"
           d="m 0,4302.5 3892.5,-1360" /><path
           inkscape:connector-curvature="0"
           id="path112"
           style="fill:none;stroke:#64b4ff;stroke-width:7.5;stroke-linecap:butt;stroke-linejoin:miter;stroke-miterlimit:10;stroke-opacity:1;stroke-dasharray:30, 30;stroke-dashoffset:0"
           d="M 3892.5,2942.5 0,4537.5" /><path
           inkscape:connector-curvature="0"
           id="path114"
           style="fill:none;stroke:#64b4ff;stroke-width:7.5;stroke-linecap:butt;stroke-linejoin:miter;stroke-miterlimit:10;stroke-opacity:1;stroke-dasharray:30, 30;stroke-dashoffset:0"
           d="m 5670,2322.5 -1777.5,620" /><path
           inkscape:connector-curvature="0"
           id="path116"
           style="fill:none;stroke:#64b4ff;stroke-width:7.5;stroke-linecap:butt;stroke-linejoin:miter;stroke-miterlimit:10;stroke-opacity:1;stroke-dasharray:30, 30;stroke-dashoffset:0"
           d="M 3892.5,2942.5 5670,2215" /><path
           inkscape:connector-curvature="0"
           id="path118"
           style="fill:none;stroke:#64b4ff;stroke-width:7.5;stroke-linecap:butt;stroke-linejoin:miter;stroke-miterlimit:10;stroke-opacity:1;stroke-dasharray:30, 30;stroke-dashoffset:0"
           d="m 0,4357.5 3892.5,-1415" /><path
           inkscape:connector-curvature="0"
           id="path120"
           style="fill:none;stroke:#64b4ff;stroke-width:7.5;stroke-linecap:butt;stroke-linejoin:miter;stroke-miterlimit:10;stroke-opacity:1;stroke-dasharray:30, 30;stroke-dashoffset:0"
           d="M 3892.5,2942.5 0,4477.5" /><path
           inkscape:connector-curvature="0"
           id="path122"
           style="fill:none;stroke:#64b4ff;stroke-width:7.5;stroke-linecap:butt;stroke-linejoin:miter;stroke-miterlimit:10;stroke-opacity:1;stroke-dasharray:30, 30;stroke-dashoffset:0"
           d="m 5670,2297.5 -1777.5,645" /><path
           inkscape:connector-curvature="0"
           id="path124"
           style="fill:none;stroke:#64b4ff;stroke-width:7.5;stroke-linecap:butt;stroke-linejoin:miter;stroke-miterlimit:10;stroke-opacity:1;stroke-dasharray:30, 30;stroke-dashoffset:0"
           d="M 3892.5,2942.5 5670,2242.5" /><path
           style="fill:none;stroke:#ff0000;stroke-width:7.5;stroke-linecap:butt;stroke-linejoin:miter;stroke-miterlimit:10;stroke-opacity:1;stroke-dasharray:none"
           d="m 2627.7934,3472.608 c -19.2249,-7.3204 -36.9456,-22.4218 -38.0473,-40.2776 0.069,-8.2224 0.3532,-16.8279 4.444,-24.2297 2.5106,-5.8724 7.5638,-9.7546 13.6054,-11.4881 7.937,-2.984 15.9313,-5.826 23.8122,-8.9452 9.5323,-3.3197 21.3504,-2.2053 28.3641,5.6786 7.3919,5.643 12.9174,13.4773 16.4883,22.0143 7.2787,6.7491 8.5672,25.1086 1.6276,32.7333 -10.6587,12.4985 -28.0613,31.1366 -50.2943,24.5144 z"
           id="path126"
           inkscape:connector-curvature="0"
           sodipodi:nodetypes="ccccccccc" /><path
           inkscape:connector-curvature="0"
           id="path128"
           style="fill:none;stroke:#000000;stroke-width:15;stroke-linecap:butt;stroke-linejoin:miter;stroke-miterlimit:10;stroke-opacity:1;stroke-dasharray:none"
           d="m 2400,2942.5 1492.5,0 -1270,490 -222.5,-490 z" /><path
           style="fill:none;stroke:#000000;stroke-width:7.5;stroke-linecap:butt;stroke-linejoin:miter;stroke-miterlimit:10;stroke-opacity:1;stroke-dasharray:none"
           d="m 2532.5,3237.5 c 19.8715,-5.3052 39.2135,-13.4103 59.9703,-14.4325 15.3219,-2.0252 30.7261,-3.75 46.1641,-2.0338 13.3312,0.7936 26.9646,0.4455 39.5974,5.3829 14.4281,4.3388 29.4613,7.4103 42.3454,15.5807 13.2582,6.8061 26.6478,13.5739 37.8508,23.5626 11.069,8.676 22.8135,16.765 31.1533,28.292 10.5529,12.011 20.9964,24.2083 28.3452,38.5256 4.0245,6.7075 8.049,13.415 12.0735,20.1225"
           id="path130"
           inkscape:connector-curvature="0" /><path
           style="fill:none;stroke:#000000;stroke-width:7.5;stroke-linecap:butt;stroke-linejoin:miter;stroke-miterlimit:10;stroke-opacity:1;stroke-dasharray:none"
           d="m 3587.5,3060 c -5.1861,-12.8304 -10.5449,-25.8208 -12.0133,-39.6962 -1.6621,-8.6963 -6.1497,-16.6693 -6.7761,-25.6124 -1.4712,-10.2391 -4.2957,-20.3879 -3.7106,-30.8042 0,-7.1291 0,-14.2581 0,-21.3872"
           id="path132"
           inkscape:connector-curvature="0" /><path
           style="fill:none;stroke:#000000;stroke-width:7.5;stroke-linecap:butt;stroke-linejoin:miter;stroke-miterlimit:10;stroke-opacity:1;stroke-dasharray:none"
           d="m 2622.5,2942.5 c -1.3035,17.3319 -1.831,34.8202 -7.2029,51.5094 -5.0029,19.0268 -11.4832,37.888 -21.6873,54.7987 -6.8059,14.0842 -17.701,25.5789 -27.5859,37.5204 -19.5419,18.603 -40.8769,35.5903 -65.102,47.7141 -3.6406,1.9858 -7.2813,3.9716 -10.9219,5.9574"
           id="path134"
           inkscape:connector-curvature="0" /></g><path
         d="m 907.5,1211.25 4477.5,0 0,3883.75 -4477.5,0 0,-3883.75 z"
         style="fill:#ffffff;fill-opacity:0.82547171;fill-rule:evenodd;stroke:none"
         id="path16"
         inkscape:export-filename="/home/eristik/academia/bachelor/presentation/draft-0/images/ckm_background.png"
         inkscape:export-xdpi="237.18593"
         inkscape:export-ydpi="237.18593"
         inkscape:connector-curvature="0" /></g></g></svg>